<?xml version="1.0" standalone="no"?>
<!DOCTYPE svg PUBLIC "-//W3C//DTD SVG 20010904//EN"
 "http://www.w3.org/TR/2001/REC-SVG-20010904/DTD/svg10.dtd">
<svg version="1.0" xmlns="http://www.w3.org/2000/svg"
 width="1280.000000pt" height="1172.000000pt" viewBox="0 0 1280.000000 1172.000000"
 preserveAspectRatio="xMidYMid meet">
<metadata>
Created by potrace 1.15, written by Peter Selinger 2001-2017
</metadata>
<g transform="translate(0.000000,1172.000000) scale(0.100000,-0.100000)"
fill="#8bc34a" stroke="none">
<path d="M10745 11687 c-34 -34 -60 -103 -49 -130 5 -13 0 -15 -29 -10 -41 6
-93 -18 -102 -48 -10 -30 23 -71 72 -89 l40 -15 -18 -35 c-25 -46 -24 -83 4
-116 19 -21 32 -27 67 -27 35 0 48 6 67 27 13 15 23 34 23 42 0 19 5 18 34
-11 55 -54 121 -20 92 48 l-14 34 48 -5 c42 -4 52 -1 74 21 14 15 26 35 26 45
0 34 -39 71 -86 83 -42 11 -43 12 -29 32 23 32 18 64 -11 83 -23 16 -28 16
-60 1 l-34 -17 0 31 c0 32 -15 69 -34 81 -22 15 -49 7 -81 -25z m16 -90 c-8
-8 -11 -7 -11 4 0 9 3 19 7 23 4 4 9 2 11 -4 3 -7 -1 -17 -7 -23z m154 -37
c-3 -5 -12 -10 -18 -10 -7 0 -6 4 3 10 19 12 23 12 15 0z m90 -132 c7 -7 2 -8
-15 -3 -14 4 -29 12 -35 17 -7 7 -2 8 15 3 14 -4 30 -12 35 -17z m-242 -143
c-5 -13 -23 -22 -23 -11 0 15 14 35 21 31 4 -3 6 -12 2 -20z"/>
<path d="M10212 11675 c-18 -15 -32 -39 -36 -60 l-7 -36 -33 21 c-99 61 -174
-34 -92 -116 l35 -35 -25 -24 c-13 -13 -24 -28 -24 -33 0 -19 42 -62 61 -62
13 0 19 -7 19 -24 0 -66 89 -103 127 -53 l17 24 34 -24 c19 -13 45 -23 57 -23
50 0 77 72 51 134 -19 47 -19 46 -1 46 8 0 30 14 50 31 44 39 45 81 2 113 -24
17 -32 19 -67 9 l-40 -10 0 34 c0 59 -40 113 -84 113 -8 0 -28 -11 -44 -25z
m-112 -140 c11 -13 10 -14 -4 -9 -9 3 -16 10 -16 15 0 13 6 11 20 -6z"/>
<path d="M11317 11672 c-9 -10 -20 -33 -23 -50 -4 -18 -14 -34 -25 -37 -31
-10 -79 -73 -79 -105 0 -37 31 -70 66 -70 23 0 25 -3 20 -25 -4 -14 0 -40 8
-60 25 -60 89 -57 121 6 l16 30 30 -26 c37 -30 53 -31 79 -5 25 25 25 36 1 83
-19 37 -19 37 1 37 38 0 58 19 58 56 0 31 -4 37 -35 50 -31 13 -34 16 -23 34
17 27 0 70 -35 90 -25 14 -30 13 -57 -2 -25 -14 -31 -14 -41 -2 -16 20 -63 17
-82 -4z"/>
<path d="M4745 11655 c-15 -14 -25 -36 -25 -53 0 -24 -6 -32 -31 -42 -63 -26
-92 -123 -47 -154 12 -9 33 -16 46 -16 19 0 22 -4 17 -20 -9 -28 13 -88 37
-101 28 -15 70 4 92 42 l18 31 22 -21 c30 -29 72 -27 91 3 16 24 13 39 -23
109 -2 4 7 7 20 7 65 0 80 72 22 100 -28 14 -31 18 -27 51 4 28 0 42 -16 58
-25 25 -63 27 -85 5 -15 -14 -18 -14 -42 5 -34 27 -40 26 -69 -4z"/>
<path d="M5208 11600 c-25 -15 -31 -63 -13 -105 17 -41 16 -43 -16 -59 -12 -6
-26 -21 -30 -34 -7 -19 -3 -29 20 -53 27 -26 28 -32 18 -59 -23 -60 48 -106
116 -76 11 6 17 4 17 -5 0 -22 52 -69 77 -69 13 0 32 9 42 19 22 22 45 96 37
117 -4 10 4 14 29 14 69 0 114 42 101 94 -7 27 -51 56 -86 56 -23 0 -24 1 -9
50 21 68 -7 120 -64 120 -36 -1 -56 -13 -82 -53 l-18 -28 -18 30 c-29 47 -80
65 -121 41z m62 -81 c0 -6 -4 -7 -10 -4 -5 3 -10 11 -10 16 0 6 5 7 10 4 6 -3
10 -11 10 -16z"/>
<path d="M2561 11576 c-32 -18 -71 -84 -71 -122 0 -31 0 -32 -45 -26 -113 12
-131 -96 -22 -137 l27 -11 -20 -32 c-26 -43 -27 -109 -1 -132 46 -42 127 -27
152 28 l11 23 28 -29 c31 -31 70 -37 90 -13 11 14 9 39 -6 80 -6 15 -4 16 14
6 57 -31 132 2 132 59 0 31 -44 76 -86 86 -23 6 -24 8 -9 30 19 30 19 68 0 84
-9 8 -30 11 -55 7 -39 -5 -40 -4 -40 25 0 31 -16 68 -34 80 -16 11 -38 9 -65
-6z m9 -85 c0 -5 -7 -14 -15 -21 -16 -14 -18 -10 -9 14 6 17 24 22 24 7z
m-145 -131 c3 -5 1 -10 -4 -10 -6 0 -11 5 -11 10 0 6 2 10 4 10 3 0 8 -4 11
-10z m351 -75 c24 -18 7 -19 -26 0 -16 9 -19 14 -9 15 8 0 24 -7 35 -15z
m-248 -117 c-2 -6 -10 -14 -16 -16 -7 -2 -10 2 -6 12 7 18 28 22 22 4z"/>
<path d="M1963 11506 c-23 -20 -28 -32 -28 -68 l0 -44 -37 14 c-97 38 -160
-49 -84 -116 19 -16 40 -32 47 -34 11 -4 10 -8 -4 -22 -20 -20 -23 -66 -5 -84
7 -7 26 -12 43 -12 26 0 32 -5 40 -32 20 -66 104 -77 129 -18 11 28 14 29 32
15 10 -8 36 -15 56 -15 65 0 86 60 48 134 l-19 38 34 33 c33 30 40 49 35 85
-6 46 -73 66 -117 35 -24 -17 -28 -14 -37 32 -9 42 -49 83 -80 83 -14 0 -38
-11 -53 -24z m-88 -166 c3 -5 2 -10 -4 -10 -5 0 -13 5 -16 10 -3 6 -2 10 4 10
5 0 13 -4 16 -10z"/>
<path d="M7553 11510 c-32 -19 -73 -84 -73 -116 0 -12 -5 -14 -17 -8 -10 4
-34 9 -55 12 -41 5 -78 -23 -78 -59 0 -24 63 -89 87 -89 11 0 6 -10 -15 -34
-39 -45 -49 -89 -27 -122 33 -51 104 -58 145 -15 l27 30 21 -28 c24 -34 67
-47 89 -29 11 9 14 24 10 54 l-4 41 26 -13 c61 -32 131 -4 131 52 0 29 -58 94
-84 94 -21 0 -20 6 4 30 27 27 26 76 -1 91 -12 6 -36 9 -53 6 l-31 -5 4 45 c6
76 -40 104 -106 63z m17 -69 c0 -5 -7 -14 -15 -21 -16 -14 -18 -10 -9 14 6 17
24 22 24 7z m127 -97 c-3 -3 -12 -4 -19 -1 -8 3 -5 6 6 6 11 1 17 -2 13 -5z
m63 -149 c0 -11 -19 -4 -41 15 l-24 21 33 -16 c17 -8 32 -18 32 -20z m-270
-64 c0 -12 -20 -25 -27 -18 -7 7 6 27 18 27 5 0 9 -4 9 -9z"/>
<path d="M9690 11503 c-16 -20 -23 -24 -32 -15 -18 18 -53 14 -72 -7 -12 -13
-17 -32 -15 -61 2 -29 -1 -46 -12 -54 -55 -41 -66 -121 -22 -156 19 -14 35
-19 54 -15 23 5 27 2 33 -22 13 -52 34 -73 71 -73 37 0 57 21 69 72 6 26 7 26
37 11 64 -32 112 27 69 87 -12 16 -26 30 -31 30 -5 0 -9 5 -9 10 0 6 6 10 14
10 22 0 46 29 46 54 0 29 -30 56 -62 56 -21 0 -25 4 -21 24 4 17 -3 33 -20 50
-34 34 -70 33 -97 -1z"/>
<path d="M4134 11499 c-15 -16 -19 -36 -19 -88 0 -36 4 -73 8 -82 6 -13 2 -18
-18 -23 -36 -9 -75 -50 -75 -79 0 -39 30 -57 92 -57 l55 0 -5 -30 c-15 -101
73 -157 147 -94 24 20 31 34 31 61 0 31 2 34 23 26 49 -17 107 0 107 32 0 8
-13 26 -29 42 l-29 29 44 12 c50 13 80 56 69 99 -8 35 -66 58 -116 45 l-37 -9
5 32 c4 25 0 38 -16 54 -28 28 -47 26 -81 -8 -26 -25 -30 -27 -35 -11 -10 31
-53 70 -78 70 -13 0 -32 -9 -43 -21z m33 -116 c-3 -10 -5 -4 -5 12 0 17 2 24
5 18 2 -7 2 -21 0 -30z m303 -53 c0 -5 -17 -9 -37 -9 -38 1 -38 1 -8 9 43 11
45 11 45 0z m-353 -106 c-3 -3 -12 -4 -19 -1 -8 3 -5 6 6 6 11 1 17 -2 13 -5z
m177 -112 c2 -4 1 -14 -3 -21 -6 -9 -10 -7 -14 8 -5 20 7 29 17 13z"/>
<path d="M6935 11475 c-19 -18 -25 -35 -25 -70 0 -42 -2 -45 -19 -35 -56 30
-131 -2 -131 -56 0 -25 35 -67 74 -89 18 -11 18 -12 1 -38 -16 -25 -16 -29 -1
-52 12 -19 25 -25 51 -25 27 0 35 -4 35 -17 2 -68 120 -91 136 -26 5 18 11 22
23 17 9 -4 35 -9 57 -12 35 -3 44 0 58 19 22 32 20 67 -7 114 l-23 40 33 31
c58 55 38 134 -33 134 -17 0 -39 -7 -50 -15 -27 -20 -32 -19 -39 15 -18 80
-91 115 -140 65z m-75 -175 c0 -5 -7 -7 -15 -4 -8 4 -15 8 -15 10 0 2 7 4 15
4 8 0 15 -4 15 -10z"/>
<path d="M5915 11464 c-46 -24 -63 -43 -81 -89 -15 -41 -17 -43 -44 -33 -43
14 -81 6 -102 -23 -19 -25 -19 -28 -3 -58 9 -17 32 -39 51 -48 l34 -17 -30
-31 c-18 -18 -33 -47 -37 -68 -5 -31 -1 -40 25 -67 42 -41 93 -42 131 -1 l28
29 17 -29 c19 -32 60 -48 85 -32 11 8 15 24 14 52 l-2 41 29 -15 c16 -8 40
-15 53 -15 33 0 77 36 77 64 0 29 -33 72 -70 91 l-29 15 24 25 c47 46 17 101
-50 93 l-36 -4 6 38 c9 49 0 72 -31 86 -30 14 -23 15 -59 -4z m-7 -86 c-2 -6
-10 -14 -16 -16 -7 -2 -10 2 -6 12 7 18 28 22 22 4z m127 -88 c-3 -5 -11 -10
-16 -10 -6 0 -7 5 -4 10 3 6 11 10 16 10 6 0 7 -4 4 -10z m45 -140 c14 -11 21
-20 15 -20 -5 0 -21 9 -35 20 -14 11 -20 20 -15 20 6 0 21 -9 35 -20z m-269
-93 c-16 -16 -26 0 -10 19 9 11 15 12 17 4 2 -6 -1 -17 -7 -23z"/>
<path d="M3141 11404 c-17 -14 -31 -32 -31 -40 0 -8 -10 -14 -26 -14 -43 0
-95 -31 -111 -66 -15 -30 -15 -35 1 -60 10 -14 26 -29 37 -31 17 -5 17 -7 4
-34 -47 -89 28 -157 103 -94 l30 25 6 -25 c9 -35 49 -60 75 -45 30 16 44 48
37 85 l-7 34 37 -6 c29 -5 40 -2 50 12 20 27 17 53 -9 79 -23 23 -23 24 -5 46
24 29 23 51 -3 85 -18 21 -28 26 -53 22 -24 -3 -36 2 -57 24 -33 35 -40 36
-78 3z"/>
<path d="M3697 11370 c-15 -12 -29 -35 -33 -55 -3 -19 -8 -35 -11 -35 -2 0
-16 9 -32 21 -56 41 -131 17 -131 -43 0 -18 12 -41 34 -65 l34 -38 -25 -18
c-18 -14 -23 -26 -21 -50 2 -26 9 -34 36 -42 26 -7 32 -14 32 -36 0 -14 9 -38
21 -53 26 -33 81 -36 102 -5 15 20 15 20 52 -5 21 -15 44 -26 52 -26 49 0 79
59 63 125 -13 54 -13 52 16 59 36 9 74 50 74 81 0 14 -10 35 -21 46 -17 17
-30 20 -69 17 l-47 -5 -1 45 c-1 85 -66 128 -125 82z m-112 -130 c3 -5 2 -10
-4 -10 -5 0 -13 5 -16 10 -3 6 -2 10 4 10 5 0 13 -4 16 -10z"/>
<path d="M6430 11280 c-11 -11 -22 -30 -25 -43 -4 -16 -21 -30 -54 -44 -84
-35 -102 -124 -31 -153 25 -10 27 -14 22 -59 -8 -91 60 -119 121 -49 15 18 27
28 27 22 0 -19 41 -54 64 -54 49 0 66 47 41 112 -5 14 0 17 31 20 20 2 41 10
47 19 15 24 0 68 -27 80 -22 10 -23 13 -10 38 15 28 10 56 -14 84 -17 19 -62
23 -78 7 -7 -7 -18 -2 -34 15 -28 30 -53 32 -80 5z"/>
<path d="M8110 11270 c-11 -11 -20 -24 -20 -30 0 -5 -18 -10 -40 -10 -100 0
-155 -79 -94 -135 24 -23 25 -25 10 -47 -19 -26 -21 -89 -4 -106 17 -17 70
-15 94 3 24 18 34 19 34 1 0 -22 40 -66 61 -66 32 0 59 36 59 80 0 38 1 39 26
30 34 -13 40 -13 58 6 21 20 20 63 0 85 -15 17 -15 20 5 45 27 34 27 54 0 89
-17 21 -28 26 -48 22 -21 -5 -30 0 -43 24 -21 35 -67 40 -98 9z"/>
<path d="M11049 11221 c-21 -21 -29 -39 -29 -65 l0 -35 -42 19 c-57 26 -74 25
-104 -6 -33 -32 -26 -65 22 -115 34 -35 35 -35 14 -54 -11 -10 -20 -26 -20
-37 0 -25 35 -58 63 -58 18 0 23 -6 25 -27 2 -31 43 -73 70 -73 24 0 62 28 62
46 0 19 7 18 37 -6 14 -11 41 -20 59 -20 59 0 81 61 49 138 -13 29 -13 38 -3
41 7 2 28 19 46 37 40 40 42 75 5 104 -27 21 -39 22 -100 4 -20 -6 -23 -3 -23
25 0 59 -40 111 -85 111 -9 0 -30 -13 -46 -29z m-93 -158 c-7 -7 -26 7 -26 19
0 6 6 6 15 -2 9 -7 13 -15 11 -17z"/>
<path d="M9055 11215 c-20 -19 -25 -34 -25 -77 0 -29 7 -66 15 -82 16 -30 12
-46 -10 -46 -18 0 -65 -57 -65 -80 0 -10 12 -28 27 -40 27 -21 68 -23 116 -4
11 4 13 -1 10 -19 -6 -33 20 -92 51 -112 55 -36 144 24 133 92 -5 31 -5 32 23
26 41 -8 77 4 90 28 10 17 6 25 -25 55 -30 28 -33 34 -17 34 26 0 71 37 82 66
23 59 -39 107 -109 85 -52 -15 -51 -15 -51 22 0 40 -15 57 -52 57 -19 0 -34
-9 -50 -30 l-22 -30 -17 27 c-17 25 -53 52 -72 53 -4 0 -19 -11 -32 -25z m195
-69 c0 -3 -4 -8 -10 -11 -5 -3 -10 -1 -10 4 0 6 5 11 10 11 6 0 10 -2 10 -4z
m-163 -48 c-3 -7 -5 -2 -5 12 0 14 2 19 5 13 2 -7 2 -19 0 -25z m309 -17 c-6
-8 -66 -21 -66 -14 0 5 43 22 58 22 7 1 11 -3 8 -8z m-146 -252 c0 -11 -4 -17
-10 -14 -5 3 -10 13 -10 21 0 8 5 14 10 14 6 0 10 -9 10 -21z"/>
<path d="M1492 11200 c-14 -25 -22 -29 -44 -24 -19 4 -33 -1 -47 -15 -25 -25
-26 -51 -6 -90 13 -26 13 -30 0 -41 -22 -19 -37 -83 -26 -114 16 -39 52 -59
87 -46 24 10 31 9 39 -6 50 -88 132 -85 142 7 l5 44 46 0 c42 0 47 3 56 27 8
24 6 32 -19 58 -16 16 -35 30 -42 30 -18 0 -16 6 12 34 29 29 31 44 11 71 -10
14 -25 19 -55 19 -36 -1 -41 1 -41 22 0 28 -35 54 -73 54 -21 0 -32 -8 -45
-30z"/>
<path d="M8682 11134 c-12 -8 -29 -28 -37 -44 l-15 -28 -34 34 c-40 40 -85 45
-116 14 -25 -25 -25 -55 0 -105 11 -21 19 -39 17 -40 -1 0 -14 -6 -29 -13 -23
-9 -28 -18 -28 -47 0 -28 5 -38 26 -47 22 -10 24 -16 19 -48 -12 -70 64 -119
111 -73 15 15 18 16 22 3 9 -25 59 -70 79 -70 48 0 93 78 79 136 -6 22 -3 24
28 24 46 0 96 41 96 79 0 36 -29 61 -78 68 -39 5 -40 6 -31 37 15 52 11 85
-16 111 -28 29 -61 32 -93 9z m-132 -95 c0 -6 -4 -7 -10 -4 -5 3 -10 11 -10
16 0 6 5 7 10 4 6 -3 10 -11 10 -16z"/>
<path d="M11692 11139 c-18 -6 -50 -28 -72 -50 -22 -23 -41 -35 -45 -29 -3 5
-20 17 -36 26 -41 21 -87 10 -100 -22 -10 -28 7 -80 34 -103 21 -17 22 -31 1
-31 -9 0 -31 -15 -50 -34 -44 -44 -46 -86 -5 -127 33 -33 67 -37 111 -14 28
15 30 14 30 -4 0 -23 46 -81 65 -81 19 0 45 40 45 68 l0 24 31 -26 c41 -35 76
-43 108 -25 43 24 41 84 -4 137 l-25 30 25 6 c62 16 55 100 -9 112 l-35 6 19
39 c25 49 25 55 -5 84 -26 27 -33 28 -83 14z m-12 -79 c-24 -15 -37 -11 -16 5
11 8 22 12 25 9 3 -3 -1 -9 -9 -14z m100 -120 c0 -5 -4 -10 -9 -10 -6 0 -13 5
-16 10 -3 6 1 10 9 10 9 0 16 -4 16 -10z m-283 -137 c-9 -9 -20 -13 -24 -9 -4
4 -1 11 7 16 25 16 35 11 17 -7z m283 -25 c0 -14 -19 1 -31 25 -12 22 -12 22
10 3 11 -11 21 -23 21 -28z"/>
<path d="M10566 11047 c-21 -21 -25 -22 -44 -9 -13 8 -32 12 -46 8 -25 -6 -50
-52 -44 -83 2 -11 -12 -34 -35 -56 -32 -32 -37 -44 -37 -82 0 -36 5 -48 25
-61 14 -9 36 -14 50 -12 22 5 25 2 25 -27 0 -41 34 -85 66 -85 29 0 61 30 70
65 7 29 12 30 38 10 27 -20 59 -19 79 3 23 25 21 43 -7 84 l-24 35 32 14 c55
25 41 99 -19 99 -22 0 -24 4 -23 37 1 28 -5 41 -26 60 -34 29 -51 29 -80 0z"/>
<path d="M3340 10994 c-35 -30 -59 -72 -62 -108 -2 -23 -5 -24 -54 -19 -43 5
-55 2 -73 -16 -11 -11 -21 -29 -21 -40 0 -25 43 -70 80 -82 l29 -11 -24 -26
c-47 -51 -45 -121 5 -147 55 -28 109 -16 134 32 l13 27 12 -23 c17 -30 70 -52
95 -39 15 8 17 18 13 55 -4 38 -2 43 12 37 54 -23 111 -10 129 30 16 35 -9 82
-55 103 -21 10 -40 18 -42 20 -1 1 4 12 13 25 41 59 -12 121 -75 88 -18 -10
-19 -7 -19 38 0 81 -50 106 -110 56z m20 -73 c0 -5 -7 -14 -15 -21 -16 -14
-18 -10 -9 14 6 17 24 22 24 7z m210 -226 c0 -11 -19 -4 -41 15 l-24 21 33
-16 c17 -8 32 -18 32 -20z m-279 -108 c-8 -8 -11 -7 -11 4 0 20 13 34 18 19 3
-7 -1 -17 -7 -23z"/>
<path d="M2743 10946 c-23 -20 -28 -32 -28 -70 0 -37 -3 -45 -15 -40 -124 54
-193 -61 -78 -130 34 -20 37 -25 23 -36 -24 -20 -19 -67 10 -86 13 -8 32 -13
42 -10 15 5 21 -1 28 -26 19 -64 103 -77 127 -20 7 15 13 28 14 30 0 1 14 -4
30 -13 92 -48 150 39 88 131 -19 28 -23 39 -13 43 23 7 58 48 65 75 8 33 -17
73 -51 82 -14 3 -37 -1 -56 -10 -37 -19 -45 -16 -52 22 -7 36 -53 82 -83 82
-12 0 -36 -11 -51 -24z m-78 -176 c3 -5 2 -10 -4 -10 -5 0 -13 5 -16 10 -3 6
-2 10 4 10 5 0 13 -4 16 -10z"/>
<path d="M9878 10860 c-28 -28 -29 -34 -26 -93 2 -34 8 -70 12 -79 6 -14 3
-18 -14 -18 -27 0 -80 -52 -80 -79 0 -12 10 -31 21 -42 18 -18 30 -21 73 -17
l51 4 -3 -42 c-4 -49 18 -100 49 -109 62 -20 129 28 129 92 0 30 2 33 19 23
29 -15 77 -12 95 6 21 21 20 27 -10 63 -24 29 -24 31 -7 37 72 23 102 58 87
102 -13 38 -50 54 -107 48 -46 -5 -47 -4 -41 20 9 34 -19 74 -52 74 -14 0 -35
-11 -48 -25 l-23 -25 -24 37 c-35 54 -64 60 -101 23z m29 -112 c-3 -7 -5 -2
-5 12 0 14 2 19 5 13 2 -7 2 -19 0 -25z m163 28 c0 -3 -4 -8 -10 -11 -5 -3
-10 -1 -10 4 0 6 5 11 10 11 6 0 10 -2 10 -4z m130 -86 c-8 -5 -26 -10 -40
-10 -20 0 -22 2 -10 10 8 5 26 10 40 10 20 0 22 -2 10 -10z m-170 -222 c0 -16
-3 -19 -11 -11 -6 6 -8 16 -5 22 11 17 16 13 16 -11z"/>
<path d="M4962 10813 c-26 -10 -54 -84 -50 -133 l3 -48 -38 -5 c-48 -7 -77
-32 -77 -66 0 -46 34 -71 94 -71 37 0 44 -8 25 -27 -6 -6 -11 -32 -11 -59 -1
-40 3 -51 26 -71 49 -42 125 -21 147 41 12 34 13 34 40 20 76 -39 127 7 78 70
l-20 26 41 0 c33 0 48 6 71 29 16 16 29 37 29 46 0 9 -13 30 -29 46 -23 22
-39 29 -69 29 l-40 0 5 40 c4 25 1 46 -7 55 -16 19 -60 19 -86 1 -18 -14 -20
-11 -41 35 -19 42 -26 49 -50 48 -15 0 -34 -3 -41 -6z m12 -108 c-4 -8 -8 -15
-10 -15 -2 0 -4 7 -4 15 0 8 4 15 10 15 5 0 7 -7 4 -15z m272 -134 c-5 -8 -56
-3 -56 5 0 2 14 4 31 4 16 0 28 -4 25 -9z m-216 -175 c0 -8 -4 -18 -10 -21 -5
-3 -10 3 -10 14 0 12 5 21 10 21 6 0 10 -6 10 -14z"/>
<path d="M1096 10789 c-16 -12 -26 -30 -26 -46 0 -13 -3 -23 -7 -21 -63 32
-88 39 -109 29 -50 -22 -39 -117 21 -173 l33 -32 -24 -29 c-33 -39 -33 -91 1
-113 30 -20 63 -13 103 21 l30 25 10 -30 c27 -76 103 -102 154 -53 32 31 38
84 12 121 -15 21 -14 22 16 22 19 0 40 9 55 25 41 40 29 69 -33 81 l-31 6 28
29 c96 95 -14 195 -111 101 -23 -21 -28 -23 -28 -8 0 18 -42 66 -58 66 -5 0
-21 -9 -36 -21z m31 -71 c-3 -8 -6 -5 -6 6 -1 11 2 17 5 13 3 -3 4 -12 1 -19z
m153 -8 c-33 -26 -52 -25 -21 0 13 11 28 20 35 20 6 0 0 -9 -14 -20z m-273
-75 c9 -25 -4 -29 -17 -6 -7 15 -7 21 0 21 6 0 13 -7 17 -15z m252 -201 c3
-16 1 -17 -13 -5 -19 16 -21 34 -3 29 6 -3 14 -13 16 -24z"/>
<path d="M3943 10789 c-12 -4 -29 -19 -39 -33 -12 -20 -25 -26 -51 -26 -93 0
-150 -90 -87 -139 24 -19 25 -21 10 -43 -20 -29 -21 -92 -1 -108 22 -18 73
-15 97 6 16 16 21 16 28 4 6 -8 10 -20 10 -27 0 -14 39 -43 57 -43 27 0 53 39
53 79 l0 40 35 -6 c21 -3 41 -1 50 7 21 17 19 63 -4 84 -18 17 -18 18 6 42 19
19 23 31 18 52 -11 45 -35 65 -72 59 -27 -5 -33 -2 -33 12 0 32 -41 53 -77 40z"/>
<path d="M5592 10747 c-12 -13 -22 -29 -22 -35 0 -7 -10 -12 -22 -12 -40 0
-105 -39 -118 -71 -16 -38 -1 -75 34 -89 24 -9 25 -11 11 -37 -44 -84 27 -149
100 -91 23 18 30 19 33 8 8 -22 50 -60 67 -60 8 0 25 10 36 21 17 17 20 29 16
63 l-6 41 39 -3 c31 -3 40 0 50 18 15 28 5 66 -21 81 -20 10 -20 11 -3 30 23
25 22 73 -2 100 -15 16 -26 20 -54 15 -30 -5 -37 -2 -45 17 -15 32 -64 35 -93
4z"/>
<path d="M4456 10709 c-17 -13 -28 -34 -32 -59 l-6 -38 -36 24 c-19 13 -47 24
-62 24 -33 0 -70 -33 -70 -63 0 -27 35 -86 55 -93 13 -5 11 -11 -10 -30 -14
-13 -25 -32 -25 -44 0 -25 34 -60 58 -60 14 0 19 -8 19 -32 0 -65 85 -100 121
-48 13 18 15 18 49 -6 47 -31 76 -31 103 4 22 27 23 67 5 128 -5 17 -1 23 20
28 65 16 97 93 55 131 -15 14 -31 17 -70 13 -43 -4 -50 -3 -46 11 9 28 -12 95
-35 114 -28 23 -60 22 -93 -4z m-111 -130 c11 -17 -1 -21 -15 -4 -8 9 -8 15
-2 15 6 0 14 -5 17 -11z"/>
<path d="M6661 10675 c-35 -30 -55 -82 -49 -131 4 -32 2 -34 -25 -34 -15 0
-41 -7 -57 -15 -74 -38 -33 -125 60 -125 35 0 35 1 15 -36 -21 -40 -19 -87 6
-118 42 -53 159 -21 159 44 0 21 15 27 25 9 11 -16 57 -31 81 -25 30 8 37 32
19 66 -21 40 -20 40 25 40 30 0 47 7 65 25 49 48 22 105 -59 126 l-44 11 11
34 c9 28 7 37 -8 54 -21 24 -54 26 -81 5 -26 -20 -34 -19 -34 5 0 29 -26 76
-45 84 -26 9 -31 8 -64 -19z m10 -108 c-8 -8 -11 -7 -11 4 0 20 13 34 18 19 3
-7 -1 -17 -7 -23z m159 -17 c0 -5 -5 -10 -11 -10 -5 0 -7 5 -4 10 3 6 8 10 11
10 2 0 4 -4 4 -10z m96 -110 c8 0 14 -4 14 -9 0 -11 -49 -1 -57 12 -4 7 0 8
11 4 10 -4 24 -7 32 -7z m-225 -193 c-13 -13 -15 1 -4 30 7 17 8 17 11 -1 2
-10 -1 -23 -7 -29z"/>
<path d="M6189 10675 c-14 -8 -32 -29 -39 -47 -8 -18 -14 -34 -16 -36 -1 -2
-15 11 -32 28 -32 32 -76 39 -113 20 -26 -14 -25 -75 1 -118 24 -40 24 -39 0
-45 -11 -3 -25 -17 -31 -31 -10 -20 -9 -30 5 -51 9 -14 24 -25 34 -25 14 0 17
-8 14 -44 -3 -37 0 -46 23 -65 35 -26 59 -27 85 -1 l20 20 31 -35 c35 -40 65
-45 100 -16 20 16 24 28 24 79 0 60 0 61 32 67 38 7 79 40 88 72 10 35 -33 75
-81 77 l-40 1 4 55 c3 43 0 60 -14 77 -25 29 -63 36 -95 18z m-135 -111 c5
-14 4 -15 -9 -4 -17 14 -19 20 -6 20 5 0 12 -7 15 -16z"/>
<path d="M9400 10650 c-24 -24 -34 -62 -26 -95 6 -24 5 -25 -21 -18 -69 19
-123 -6 -123 -56 0 -36 22 -65 65 -86 34 -15 35 -18 21 -34 -37 -41 -1 -99 54
-88 24 5 30 3 30 -11 0 -31 38 -62 74 -62 35 0 66 25 66 52 0 14 5 14 40 2 80
-28 126 20 96 100 -9 24 -24 50 -31 56 -13 10 -10 16 15 40 37 34 48 75 29
109 -18 32 -69 40 -104 17 -34 -22 -42 -20 -48 12 -14 68 -95 104 -137 62z
m-75 -180 c3 -5 2 -10 -4 -10 -5 0 -13 5 -16 10 -3 6 -2 10 4 10 5 0 13 -4 16
-10z"/>
<path d="M2306 10596 c-15 -14 -26 -31 -26 -38 0 -8 -12 -13 -32 -13 -24 0
-36 -6 -47 -27 -14 -24 -14 -30 2 -63 16 -34 16 -39 1 -83 -15 -43 -15 -50 -1
-84 19 -45 57 -59 98 -36 25 15 27 14 44 -14 48 -82 147 -47 129 46 -5 32 -5
33 24 28 49 -7 74 13 70 55 -2 30 -9 39 -40 55 l-37 20 21 29 c18 24 20 33 10
53 -13 30 -52 42 -81 26 -17 -8 -21 -8 -21 4 0 22 -32 55 -62 62 -21 4 -33 0
-52 -20z"/>
<path d="M11807 10592 c-10 -10 -17 -31 -17 -45 0 -25 -3 -27 -40 -27 -44 0
-90 -34 -90 -65 0 -18 46 -69 70 -77 11 -3 10 -10 -8 -33 -27 -34 -28 -57 -4
-78 23 -21 61 -22 90 -1 13 9 24 14 26 13 1 -2 7 -17 14 -32 22 -51 82 -49
100 3 10 26 14 29 40 24 63 -13 109 48 74 96 -19 25 -19 26 -1 49 24 29 24 34
-3 66 -16 18 -34 26 -55 27 -22 1 -34 7 -38 19 -3 10 -22 32 -41 48 -41 36
-91 41 -117 13z"/>
<path d="M7294 10523 c-18 -20 -34 -27 -54 -25 -38 4 -95 -21 -115 -52 -19
-29 -13 -57 17 -86 19 -17 20 -21 6 -42 -29 -46 -31 -76 -4 -103 30 -30 41
-31 89 -6 l37 19 0 -22 c0 -26 34 -66 56 -66 29 0 64 47 64 87 0 29 3 34 12
25 7 -7 24 -12 38 -12 14 0 31 5 38 12 16 16 15 59 -2 84 -13 18 -13 22 5 37
23 21 26 79 3 101 -8 9 -27 16 -42 16 -19 0 -32 9 -44 30 -23 40 -68 41 -104
3z"/>
<path d="M8969 10419 c-15 -15 -24 -18 -32 -10 -17 17 -62 13 -80 -7 -10 -10
-17 -35 -17 -55 0 -28 -6 -40 -26 -53 -76 -50 -68 -164 11 -164 31 0 34 -3 40
-39 3 -22 17 -49 31 -62 20 -19 29 -21 52 -13 15 5 34 24 44 42 22 46 24 46
50 28 28 -20 52 -20 72 0 22 21 20 64 -4 94 -25 32 -25 40 0 40 11 0 27 11 36
25 15 23 15 27 0 50 -9 14 -29 28 -45 31 -23 5 -27 10 -23 34 3 21 -3 36 -21
54 -32 31 -60 33 -88 5z"/>
<path d="M7680 10353 c-41 -15 -52 -74 -25 -127 19 -36 19 -33 -10 -40 -50
-13 -56 -72 -10 -102 20 -13 22 -19 14 -43 -13 -37 3 -78 37 -93 22 -10 31 -9
56 5 17 10 31 16 32 15 1 -2 8 -16 16 -32 18 -35 50 -51 84 -42 35 9 56 45 59
100 2 43 4 46 29 46 96 0 144 96 68 135 -16 8 -40 15 -54 15 -23 0 -25 2 -16
26 6 14 10 45 10 69 0 49 -24 75 -71 75 -31 0 -75 -32 -85 -62 -6 -20 -8 -19
-38 15 -31 36 -67 51 -96 40z m44 -89 c3 -8 2 -12 -4 -9 -6 3 -10 10 -10 16 0
14 7 11 14 -7z"/>
<path d="M8317 10340 c-32 -25 -61 -99 -55 -140 4 -27 2 -30 -24 -30 -16 0
-42 -7 -58 -15 -74 -38 -33 -125 60 -125 35 0 35 1 15 -36 -21 -40 -19 -87 6
-118 42 -53 159 -21 159 44 0 25 5 25 37 0 64 -50 123 2 77 68 -15 22 -15 22
29 22 73 0 113 46 91 105 -9 22 -57 45 -95 45 -26 0 -30 3 -24 18 17 40 17 63
0 82 -21 24 -54 26 -81 5 -28 -21 -31 -19 -38 24 -4 25 -15 46 -28 55 -29 21
-40 20 -71 -4z m4 -113 c-8 -8 -11 -7 -11 4 0 20 13 34 18 19 3 -7 -1 -17 -7
-23z m151 -29 c-7 -7 -12 -8 -12 -2 0 14 12 26 19 19 2 -3 -1 -11 -7 -17z
m118 -108 c0 -6 -11 -8 -27 -4 -40 10 -41 14 -5 14 18 0 32 -5 32 -10z m-239
-183 c-8 -8 -11 -5 -11 9 0 27 14 41 18 19 2 -9 -1 -22 -7 -28z"/>
<path d="M846 10325 c-13 -14 -26 -38 -29 -54 l-6 -29 -38 19 c-65 33 -124 18
-137 -36 -7 -29 15 -79 44 -98 24 -14 26 -27 4 -27 -8 0 -29 -13 -45 -29 -34
-34 -39 -79 -11 -104 21 -19 92 -23 123 -7 16 9 19 7 19 -14 0 -53 56 -73 96
-35 18 17 26 19 42 10 33 -17 67 -13 90 12 24 25 29 66 11 84 -9 9 -3 15 24
26 96 41 74 136 -35 154 -38 6 -38 6 -38 55 0 85 -65 126 -114 73z m-136 -305
c-20 -13 -33 -13 -25 0 3 6 14 10 23 10 15 0 15 -2 2 -10z"/>
<path d="M2114 10146 c-17 -8 -40 -25 -50 -38 l-18 -25 -21 31 c-11 17 -30 32
-42 34 -30 4 -63 -32 -63 -68 l0 -31 -30 16 c-41 21 -87 19 -100 -4 -26 -50 3
-124 66 -166 31 -21 31 -21 13 -44 -11 -14 -19 -39 -19 -62 0 -74 66 -85 132
-22 25 24 26 24 33 4 11 -34 63 -71 101 -71 68 0 111 91 69 146 -20 27 -19 31
15 37 37 8 68 52 53 76 -5 9 -26 20 -45 25 l-35 9 23 35 c31 44 30 77 -1 107
-27 28 -38 30 -81 11z m31 -65 c-3 -6 -16 -16 -28 -22 -21 -11 -21 -10 2 15
23 25 40 29 26 7z m-155 -22 c0 -6 -4 -7 -10 -4 -5 3 -10 11 -10 16 0 6 5 7
10 4 6 -3 10 -11 10 -16z m-110 -111 c0 -6 -7 -5 -15 2 -8 7 -15 17 -15 22 0
6 7 5 15 -2 8 -7 15 -17 15 -22z m270 -155 c0 -13 -3 -13 -15 -3 -8 7 -15 16
-15 21 0 5 7 6 15 3 8 -4 15 -13 15 -21z"/>
<path d="M12086 10120 c-18 -17 -37 -42 -40 -56 -7 -24 -8 -25 -25 -10 -22 20
-65 21 -81 1 -7 -9 -13 -31 -12 -50 1 -28 -3 -35 -17 -35 -26 0 -61 -42 -61
-73 0 -30 31 -67 56 -67 12 0 14 -5 8 -17 -16 -38 -16 -90 1 -106 25 -25 86
-21 128 7 l36 25 35 -35 c41 -41 77 -44 111 -9 30 29 31 40 6 88 l-19 38 39
16 c44 17 79 55 79 85 0 11 -14 33 -30 50 -27 27 -36 30 -75 26 -43 -5 -43 -5
-34 19 16 43 10 82 -16 108 -31 32 -47 31 -89 -5z m35 -73 c-10 -9 -11 -8 -5
6 3 10 9 15 12 12 3 -3 0 -11 -7 -18z"/>
<path d="M3797 10000 c-32 -25 -61 -99 -55 -140 4 -29 4 -30 -37 -30 -109 0
-114 -119 -5 -136 22 -4 40 -8 40 -9 0 -2 -7 -16 -15 -31 -21 -40 -19 -87 6
-118 42 -53 159 -21 159 44 0 25 5 25 32 0 13 -12 36 -20 55 -20 43 0 56 24
37 69 -8 18 -14 34 -14 35 0 0 21 1 46 1 38 1 51 6 70 28 13 16 24 35 24 43 0
28 -56 73 -98 80 -40 6 -41 7 -25 30 35 55 -12 104 -76 78 -18 -8 -35 -14 -36
-14 -1 0 -5 18 -9 39 -4 25 -15 46 -28 55 -29 21 -40 20 -71 -4z m4 -113 c-8
-8 -11 -7 -11 4 0 20 13 34 18 19 3 -7 -1 -17 -7 -23z m159 -21 c0 -3 -4 -8
-10 -11 -5 -3 -10 -1 -10 4 0 6 5 11 10 11 6 0 10 -2 10 -4z m95 -116 c18 -8
18 -9 -5 -9 -14 0 -32 4 -40 9 -12 8 -12 10 5 9 11 0 29 -4 40 -9z m-234 -183
c-13 -13 -15 1 -4 30 7 17 8 17 11 -1 2 -10 -1 -23 -7 -29z"/>
<path d="M4400 9950 c-11 -11 -22 -31 -26 -45 -3 -14 -13 -25 -23 -25 -31 0
-82 -40 -97 -77 -14 -34 -14 -38 4 -62 10 -14 28 -27 39 -29 17 -3 19 -9 15
-56 -3 -40 0 -56 13 -69 26 -27 65 -21 102 15 18 18 33 27 33 20 0 -21 39 -52
65 -52 29 0 59 40 52 67 -3 10 -8 28 -12 40 -5 19 -2 22 31 25 20 2 41 10 47
19 15 23 1 63 -27 78 -22 12 -23 15 -10 40 18 35 18 44 -7 75 -21 27 -66 35
-86 15 -7 -7 -15 -2 -27 15 -20 32 -58 34 -86 6z"/>
<path d="M4999 9921 c-16 -16 -29 -39 -29 -51 0 -21 -2 -20 -35 9 -90 79 -177
-2 -110 -102 18 -26 22 -37 12 -37 -20 0 -47 -33 -47 -57 0 -21 29 -53 48 -53
7 0 12 -15 12 -36 0 -45 15 -73 46 -84 26 -10 61 1 76 23 4 7 19 -2 36 -21 21
-22 39 -32 60 -32 53 0 78 42 70 119 -3 38 -2 40 30 46 45 8 82 46 82 83 0 41
-28 62 -81 62 l-44 0 3 59 c3 50 0 63 -17 80 -31 31 -76 27 -112 -8z m-109
-102 c0 -6 -4 -7 -10 -4 -5 3 -10 11 -10 16 0 6 5 7 10 4 6 -3 10 -11 10 -16z"/>
<path d="M3241 9894 c-20 -26 -26 -48 -23 -86 2 -22 2 -22 -34 -3 -62 32 -124
8 -124 -49 0 -34 27 -72 65 -94 19 -10 19 -11 2 -29 -20 -23 -22 -64 -5 -81 7
-7 24 -12 39 -12 22 0 30 -6 39 -35 14 -41 39 -57 83 -53 23 2 35 10 45 30
l13 27 32 -19 c44 -27 72 -25 96 6 27 34 26 64 0 116 -17 34 -19 43 -8 47 28
9 69 60 69 86 0 61 -44 86 -105 60 -39 -16 -38 -16 -50 40 -16 73 -93 101
-134 49z m-86 -154 c3 -5 2 -10 -4 -10 -5 0 -13 5 -16 10 -3 6 -2 10 4 10 5 0
13 -4 16 -10z"/>
<path d="M5543 9880 c-35 -21 -73 -85 -73 -123 0 -23 -1 -24 -40 -14 -35 10
-43 8 -67 -9 -51 -38 -37 -98 29 -124 18 -7 34 -14 36 -16 2 -1 -8 -19 -23
-39 -31 -47 -32 -86 -2 -121 32 -37 95 -39 131 -5 14 14 26 32 26 40 0 11 7 8
23 -11 12 -15 35 -32 51 -38 42 -15 59 3 53 55 l-4 42 44 -10 c38 -9 47 -8 71
10 53 40 38 103 -34 134 l-44 20 22 29 c18 25 20 34 10 54 -14 30 -54 43 -88
27 -24 -10 -24 -10 -24 39 0 39 -4 52 -22 64 -29 20 -36 20 -75 -4z m-7 -98
c-18 -16 -18 -16 -6 6 6 13 14 21 18 18 3 -4 -2 -14 -12 -24z m149 -62 c-3 -5
-11 -10 -16 -10 -6 0 -7 5 -4 10 3 6 11 10 16 10 6 0 7 -4 4 -10z m85 -145 c0
-11 -19 -4 -41 15 l-24 21 33 -16 c17 -8 32 -18 32 -20z m-274 -112 c-11 -11
-17 4 -9 23 7 18 8 18 11 1 2 -10 1 -21 -2 -24z"/>
<path d="M9999 9861 c-20 -20 -29 -39 -29 -61 0 -17 -3 -30 -7 -28 -84 43
-122 43 -150 2 -21 -33 -10 -70 33 -111 20 -18 31 -33 25 -33 -6 0 -18 -11
-27 -25 -23 -35 -6 -73 35 -81 22 -5 30 -13 35 -37 9 -44 34 -67 72 -67 23 0
38 7 51 24 18 23 19 23 43 6 41 -29 69 -33 95 -16 33 21 42 76 22 127 l-15 39
34 16 c42 20 67 64 58 99 -9 36 -38 48 -96 41 -26 -4 -48 -3 -47 1 1 4 1 23 0
41 -1 39 -48 92 -81 92 -12 0 -35 -13 -51 -29z m-99 -143 c0 -6 -6 -5 -15 2
-8 7 -15 14 -15 16 0 2 7 1 15 -2 8 -4 15 -11 15 -16z"/>
<path d="M672 9743 c-17 -23 -23 -26 -33 -15 -22 21 -73 14 -98 -12 -20 -22
-22 -29 -13 -55 9 -27 8 -32 -8 -41 -25 -13 -35 -52 -21 -78 6 -12 26 -26 45
-33 28 -10 35 -18 40 -50 13 -83 109 -116 151 -53 16 24 25 29 40 23 57 -22
115 6 115 55 0 14 -13 38 -31 55 l-30 31 24 11 c14 6 30 22 37 35 11 19 10 27
-5 50 -15 24 -21 26 -66 22 l-49 -5 0 31 c0 39 -16 56 -51 56 -18 0 -34 -9
-47 -27z"/>
<path d="M7771 9751 c-10 -10 -22 -33 -26 -50 -3 -17 -15 -33 -26 -36 -10 -4
-32 -20 -49 -36 -53 -54 -33 -139 32 -139 15 0 18 -9 18 -48 0 -86 65 -112
116 -48 l28 35 29 -25 c35 -29 51 -30 77 -4 23 23 25 45 5 80 -20 35 -19 40 9
40 50 0 75 60 38 93 -10 10 -26 17 -35 17 -19 0 -23 15 -7 25 18 11 10 56 -15
80 -28 29 -57 32 -79 10 -14 -14 -17 -14 -36 5 -25 25 -54 26 -79 1z"/>
<path d="M10594 9741 c-32 -20 -74 -71 -74 -90 0 -15 -15 -14 -29 3 -28 34
-100 26 -121 -13 -14 -28 8 -81 45 -105 l27 -18 -35 -23 c-66 -46 -73 -119
-14 -155 41 -25 78 -25 110 0 30 24 37 25 37 6 0 -7 9 -25 21 -40 38 -48 89
-26 89 38 l0 25 34 -20 c46 -27 93 -22 118 12 18 24 18 29 5 61 -8 19 -27 44
-42 56 l-28 22 27 21 c30 24 35 69 10 90 -9 7 -31 13 -50 13 -28 0 -33 3 -28
16 14 30 16 91 4 105 -17 21 -69 19 -106 -4z m16 -66 c-7 -8 -17 -15 -22 -15
-6 0 -5 7 2 15 7 8 17 15 22 15 6 0 5 -7 -2 -15z m107 -111 c-3 -3 -12 -4 -19
-1 -8 3 -5 6 6 6 11 1 17 -2 13 -5z m13 -139 c13 -14 21 -25 18 -25 -2 0 -15
11 -28 25 -13 14 -21 25 -18 25 2 0 15 -11 28 -25z m-269 -48 c-16 -16 -26 0
-10 19 9 11 15 12 17 4 2 -6 -1 -17 -7 -23z"/>
<path d="M6112 9727 c-12 -13 -22 -31 -22 -40 0 -13 -9 -17 -35 -17 -49 0
-105 -50 -105 -94 0 -33 25 -66 49 -66 9 0 11 -6 6 -17 -4 -10 -9 -35 -12 -56
-6 -42 16 -77 49 -77 24 0 74 26 82 42 5 10 7 10 12 1 14 -31 47 -63 65 -63
10 0 28 9 40 21 17 17 20 28 14 64 l-6 44 34 -6 c30 -4 38 -1 52 20 14 21 14
30 4 49 -7 13 -19 28 -27 34 -13 10 -13 14 1 35 22 31 21 51 -5 84 -18 23 -26
26 -57 21 -31 -5 -38 -2 -46 17 -15 32 -64 35 -93 4z"/>
<path d="M8408 9707 c-14 -13 -29 -34 -33 -46 -7 -22 -8 -22 -40 13 -76 84
-173 13 -120 -88 19 -35 19 -46 2 -46 -8 0 -22 -9 -32 -20 -23 -25 -13 -67 19
-81 21 -10 23 -16 19 -51 -5 -31 -1 -44 17 -63 26 -28 71 -33 90 -10 10 12 17
8 49 -25 45 -48 63 -49 102 -11 24 25 29 37 29 80 0 48 2 51 25 51 53 0 105
42 105 85 0 29 -46 65 -84 65 -33 0 -35 2 -30 28 13 63 8 98 -16 122 -27 27
-71 25 -102 -3z m-124 -83 c3 -8 2 -12 -4 -9 -6 3 -10 10 -10 16 0 14 7 11 14
-7z"/>
<path d="M7158 9668 c-18 -26 -23 -46 -23 -95 l0 -61 -34 -6 c-42 -6 -81 -42
-81 -72 0 -33 45 -64 92 -64 34 0 39 -3 33 -17 -4 -10 -10 -37 -12 -60 -5 -37
-2 -46 26 -74 28 -27 37 -31 69 -26 42 7 82 46 82 81 l0 24 37 -19 c46 -24 55
-24 84 0 l23 18 -22 37 c-24 41 -27 50 -12 41 5 -3 27 -1 49 5 103 28 88 135
-21 147 l-44 5 0 46 c1 42 -2 47 -26 56 -23 8 -33 6 -56 -11 l-29 -21 -21 49
c-19 45 -23 49 -55 49 -29 0 -40 -6 -59 -32z m35 -88 c-3 -11 -7 -20 -9 -20
-2 0 -4 9 -4 20 0 11 4 20 9 20 5 0 7 -9 4 -20z m149 -22 c-7 -7 -12 -8 -12
-2 0 14 12 26 19 19 2 -3 -1 -11 -7 -17z m123 -98 c8 -13 -25 -13 -45 0 -12 8
-9 10 12 10 15 0 30 -4 33 -10z m-212 -195 c-5 -13 -23 -22 -23 -11 0 15 14
35 21 31 4 -3 6 -12 2 -20z"/>
<path d="M2760 9660 c-11 -11 -20 -24 -20 -29 0 -6 -16 -7 -36 -4 -29 5 -40 2
-50 -12 -16 -22 -19 -81 -4 -90 5 -3 -2 -22 -15 -42 -32 -47 -34 -114 -4 -144
20 -20 40 -21 79 -5 11 4 20 -5 32 -34 23 -54 59 -71 96 -43 20 15 28 30 30
60 l3 40 39 -10 c33 -9 42 -8 60 8 29 26 25 53 -15 90 l-34 33 24 16 c27 17
32 45 15 77 -8 14 -21 19 -50 19 -36 0 -40 3 -40 24 0 27 -42 66 -71 66 -11 0
-28 -9 -39 -20z"/>
<path d="M6696 9649 c-14 -17 -26 -37 -26 -45 0 -20 -5 -18 -38 16 -35 34 -90
41 -116 14 -22 -21 -20 -72 4 -112 24 -38 24 -42 7 -42 -20 0 -47 -33 -47 -57
0 -22 29 -53 49 -53 9 0 12 -9 8 -27 -12 -66 46 -121 99 -93 13 7 24 17 24 22
0 5 15 -7 34 -26 45 -49 88 -50 117 -3 15 24 19 44 16 80 -4 41 -2 47 15 47
36 0 86 31 96 58 18 53 -16 92 -80 92 l-34 0 4 59 c4 50 1 62 -17 80 -32 32
-83 28 -115 -10z m-112 -85 c5 -14 4 -15 -9 -4 -17 14 -19 20 -6 20 5 0 12 -7
15 -16z"/>
<path d="M1767 9650 c-14 -11 -28 -34 -32 -50 l-7 -30 -29 21 c-109 77 -208
-21 -117 -118 l20 -22 -35 -14 c-64 -27 -86 -88 -46 -128 18 -18 30 -21 75
-17 45 4 54 2 54 -11 0 -28 30 -61 56 -61 13 0 33 9 43 19 17 17 22 18 38 6
30 -23 77 -18 103 10 21 23 23 29 13 56 -10 26 -9 31 5 36 54 17 71 27 81 49
17 39 -5 75 -64 103 l-51 24 1 55 c0 45 -4 57 -24 73 -30 24 -52 24 -84 -1z
m-157 -284 c0 -2 -7 -6 -15 -10 -8 -3 -15 -1 -15 4 0 6 7 10 15 10 8 0 15 -2
15 -4z"/>
<path d="M8910 9614 c-38 -33 -60 -74 -60 -115 0 -26 -3 -30 -17 -24 -46 17
-69 16 -96 -5 -50 -40 -24 -108 50 -126 12 -4 23 -8 23 -10 0 -2 -11 -20 -25
-40 -31 -46 -32 -85 -2 -120 32 -37 95 -39 131 -5 14 14 26 31 26 39 0 8 12 1
30 -18 23 -25 36 -31 62 -28 32 3 33 4 32 50 0 46 1 47 25 41 64 -17 121 9
121 55 0 38 -21 65 -69 87 -38 17 -39 19 -26 39 40 56 -2 113 -66 89 l-29 -11
0 44 c0 31 -6 50 -20 64 -27 27 -52 25 -90 -6z m20 -73 c0 -5 -7 -14 -15 -21
-16 -14 -18 -10 -9 14 6 17 24 22 24 7z m140 -75 c0 -2 -7 -7 -16 -10 -8 -3
-12 -2 -9 4 6 10 25 14 25 6z m56 -131 c24 -18 7 -19 -26 0 -16 9 -19 14 -9
15 8 0 24 -7 35 -15z m-250 -132 c-11 -11 -17 4 -9 23 7 18 8 18 11 1 2 -10 1
-21 -2 -24z"/>
<path d="M9522 9618 c-17 -17 -24 -20 -34 -10 -36 36 -88 -2 -88 -66 0 -28 -6
-45 -18 -54 -32 -23 -52 -61 -52 -99 0 -45 25 -69 73 -69 35 0 37 -2 37 -30 0
-36 38 -80 69 -80 23 0 71 54 71 81 0 18 2 19 30 4 37 -19 64 -19 80 0 20 25
14 64 -14 94 l-27 28 30 13 c51 21 54 77 5 98 -14 7 -31 12 -38 12 -8 0 -12 8
-9 23 6 32 -32 77 -66 77 -14 0 -37 -10 -49 -22z"/>
<path d="M12184 9565 c-9 -13 -18 -42 -21 -64 -5 -37 -7 -39 -30 -30 -75 28
-143 -8 -143 -76 0 -45 45 -95 85 -95 l26 0 -20 -26 c-50 -64 -6 -135 55 -89
29 22 34 18 34 -21 0 -26 8 -43 29 -65 30 -29 46 -34 76 -23 23 9 45 57 45 99
l0 35 40 -6 c26 -4 45 -2 55 6 19 16 19 59 0 86 -16 23 -11 34 15 34 10 0 29
9 44 21 68 54 -10 136 -121 127 l-53 -5 0 32 c0 73 -80 114 -116 60z m216
-145 c0 -13 -11 -13 -30 0 -12 8 -11 10 8 10 12 0 22 -4 22 -10z m-310 -50 c0
-5 -9 -10 -20 -10 -11 0 -20 5 -20 10 0 6 9 10 20 10 11 0 20 -4 20 -10z m167
-217 c-3 -10 -5 -2 -5 17 0 19 2 27 5 18 2 -10 2 -26 0 -35z"/>
<path d="M10910 9320 c-22 -22 -26 -51 -10 -79 7 -15 2 -23 -28 -42 -20 -13
-41 -36 -46 -51 -14 -40 23 -78 75 -78 l37 0 -5 -44 c-5 -38 -2 -46 16 -56 35
-18 64 -8 90 32 l24 37 19 -24 c38 -49 107 -16 95 45 -6 25 -3 30 13 30 31 0
60 36 60 73 0 36 -15 57 -41 57 -14 0 -17 6 -12 33 3 24 0 39 -12 50 -18 19
-75 23 -92 6 -7 -7 -20 -4 -44 10 -45 28 -112 28 -139 1z"/>
<path d="M712 9259 c-26 -10 -52 -64 -52 -108 0 -29 -1 -30 -29 -20 -62 22
-102 -37 -63 -91 l21 -28 -31 -11 c-73 -26 -88 -72 -38 -115 35 -29 85 -41
135 -32 34 7 35 6 35 -24 0 -38 51 -95 76 -86 9 3 20 6 25 6 15 0 39 57 39 94
0 34 1 35 26 26 76 -29 144 6 144 75 0 44 -45 95 -83 95 l-25 0 21 39 c18 33
19 43 9 65 -14 32 -43 34 -83 5 l-29 -20 0 44 c0 62 -48 104 -98 86z m19 -110
c-10 -23 -10 -23 -10 7 -1 17 2 34 7 38 11 12 14 -18 3 -45z m209 -179 c0 -5
-6 -10 -14 -10 -8 0 -18 5 -21 10 -3 6 3 10 14 10 12 0 21 -4 21 -10z m-320
-60 c12 -8 11 -10 -7 -10 -13 0 -23 5 -23 10 0 13 11 13 30 0z"/>
<path d="M1370 9137 c-19 -9 -26 -22 -28 -50 -2 -28 -8 -37 -21 -37 -10 0 -26
-9 -36 -20 -22 -25 -14 -63 22 -96 16 -15 23 -29 19 -40 -10 -27 4 -82 30
-109 28 -31 70 -33 99 -5 l22 20 40 -22 c33 -18 47 -21 69 -13 40 14 52 53 30
95 -17 34 -10 49 21 50 19 0 43 30 43 54 0 33 -31 56 -74 56 -33 0 -37 3 -30
18 4 9 8 30 8 47 1 40 -42 57 -83 34 -26 -15 -29 -15 -49 7 -23 27 -45 30 -82
11z"/>
<path d="M12235 8945 c-14 -13 -25 -29 -25 -34 0 -6 -15 -4 -35 5 -47 19 -71
18 -95 -6 -26 -26 -25 -49 3 -91 l23 -34 -31 -20 c-62 -42 -35 -109 43 -103
42 3 43 2 38 -23 -12 -62 54 -91 99 -43 14 15 25 22 25 16 0 -6 9 -16 21 -22
50 -27 123 26 102 73 -9 20 -7 25 18 40 20 11 29 24 29 42 0 28 -40 75 -65 75
-10 0 -15 10 -15 33 0 41 -33 95 -66 107 -36 14 -42 13 -69 -15z"/>
<path d="M11291 8875 c-17 -20 -31 -41 -31 -47 0 -6 -11 -1 -24 11 -42 39
-107 4 -93 -50 4 -14 0 -19 -15 -19 -11 0 -33 -14 -50 -30 -24 -25 -29 -36
-23 -58 9 -36 23 -52 47 -52 11 0 18 -3 16 -7 -30 -59 -37 -84 -29 -107 6 -13
15 -27 21 -31 23 -14 91 -6 125 15 33 21 33 21 40 1 18 -56 110 -81 139 -39
20 28 20 55 1 92 -8 15 -15 29 -15 31 0 1 17 5 38 9 47 7 92 46 92 80 0 14
-11 37 -24 52 -18 22 -32 28 -65 28 -37 1 -41 3 -35 21 28 84 8 135 -52 135
-24 0 -39 -9 -63 -35z m51 -57 c-7 -7 -12 -8 -12 -2 0 14 12 26 19 19 2 -3 -1
-11 -7 -17z"/>
<path d="M765 8645 c-29 -28 -30 -34 -10 -82 8 -20 14 -37 13 -37 -2 -1 -25
-11 -53 -22 -62 -25 -84 -58 -66 -101 14 -35 47 -53 97 -53 l35 0 -16 -30
c-21 -40 -19 -72 6 -104 28 -36 63 -34 103 7 18 17 35 39 38 47 4 13 8 13 25
-2 23 -21 64 -23 81 -6 7 7 12 26 12 44 0 26 4 33 27 37 20 4 31 -1 45 -18 24
-30 78 -55 122 -55 36 0 36 0 36 -44 0 -63 27 -91 83 -87 21 1 57 57 57 89 0
26 6 27 40 7 14 -8 44 -14 67 -15 33 0 46 5 62 26 40 51 15 133 -43 148 l-25
6 25 25 c16 16 24 35 24 60 0 43 -17 52 -66 37 l-34 -10 0 47 c0 114 -118 123
-148 11 -6 -23 -14 -34 -23 -31 -41 12 -71 12 -84 1 -17 -14 -20 -75 -5 -85
20 -13 9 -23 -29 -27 -34 -3 -42 0 -50 19 -6 12 -21 25 -35 29 l-25 6 20 31
c24 41 24 72 -1 97 -26 26 -70 25 -122 -1 -33 -17 -42 -18 -49 -7 -5 7 -9 16
-9 21 0 11 -63 47 -83 47 -10 0 -29 -11 -42 -25z m605 -100 c-15 -39 -23 -25
-8 16 6 18 13 29 15 23 2 -6 -1 -24 -7 -39z m-116 -71 c3 -8 2 -12 -4 -9 -6 3
-10 10 -10 16 0 14 7 11 14 -7z m-44 -144 c13 -8 13 -10 -2 -10 -9 0 -20 5
-23 10 -8 13 5 13 25 0z m318 -8 c2 -7 -2 -10 -12 -6 -9 3 -16 11 -16 16 0 13
23 5 28 -10z m-696 -54 c-7 -7 -12 -8 -12 -2 0 14 12 26 19 19 2 -3 -1 -11 -7
-17z"/>
<path d="M12032 8425 c-18 -22 -23 -24 -46 -14 -58 27 -120 -35 -92 -92 14
-27 13 -29 -20 -48 -83 -49 -47 -136 59 -143 35 -3 37 -5 37 -36 0 -39 23 -87
45 -96 52 -20 92 7 102 68 4 29 9 36 22 30 77 -31 124 -22 149 28 16 34 3 69
-37 99 l-29 21 39 38 c44 42 51 78 19 110 -24 24 -74 26 -110 5 -34 -20 -40
-19 -40 8 0 51 -64 65 -98 22z m195 -91 c-3 -3 -12 -4 -19 -1 -8 3 -5 6 6 6
11 1 17 -2 13 -5z"/>
<path d="M11332 8325 c-11 -14 -23 -41 -26 -60 l-7 -35 -29 15 c-72 37 -150 2
-150 -68 0 -41 30 -82 65 -91 l25 -6 -21 -29 c-14 -19 -19 -39 -17 -62 3 -31
6 -34 33 -33 17 0 38 4 48 8 15 7 17 2 17 -38 0 -36 6 -52 25 -71 13 -14 33
-25 43 -25 34 0 69 37 81 85 10 40 14 44 31 35 25 -14 63 -13 78 2 17 17 15
68 -3 88 -14 16 -12 18 25 24 45 7 80 36 80 65 0 47 -109 110 -166 95 -17 -5
-19 -1 -16 33 7 78 -72 125 -116 68z m198 -166 c0 -14 -16 -11 -29 5 -10 12
-8 13 8 9 12 -3 21 -9 21 -14z m-315 -9 c3 -5 -1 -10 -9 -10 -8 0 -18 5 -21
10 -3 6 1 10 9 10 8 0 18 -4 21 -10z m265 -141 c0 -6 -4 -7 -10 -4 -5 3 -10
11 -10 16 0 6 5 7 10 4 6 -3 10 -11 10 -16z m-120 -84 c-15 -39 -23 -25 -8 16
6 18 13 29 15 23 2 -6 -1 -24 -7 -39z"/>
<path d="M943 8063 c-9 -16 -18 -29 -19 -31 -1 -1 -13 2 -26 9 -57 25 -118
-43 -85 -95 14 -21 14 -24 -4 -39 -10 -9 -19 -28 -19 -41 0 -29 43 -66 76 -66
18 0 24 -6 24 -21 0 -12 15 -36 34 -55 26 -26 42 -34 69 -34 37 0 67 27 67 61
0 14 8 16 44 12 38 -5 48 -2 70 20 35 35 33 53 -9 93 l-35 33 25 25 c30 30 32
57 5 81 -19 17 -58 17 -102 0 -15 -6 -18 -2 -18 22 0 36 -16 53 -52 53 -19 0
-33 -8 -45 -27z"/>
<path d="M1311 8024 c-26 -33 -26 -40 -2 -87 l18 -36 -33 -11 c-74 -25 -103
-76 -74 -130 13 -23 70 -43 103 -35 l25 7 -14 -40 c-17 -50 -4 -93 32 -113 33
-17 69 1 103 53 22 35 25 36 45 23 42 -30 86 -7 86 46 0 23 6 31 35 43 57 24
61 106 6 129 -27 12 -28 14 -15 37 47 86 -23 145 -116 97 l-49 -26 -35 35
c-43 43 -85 46 -115 8z m103 -359 c-4 -8 -11 -15 -16 -15 -6 0 -5 6 2 15 7 8
14 15 16 15 2 0 1 -7 -2 -15z"/>
<path d="M11930 7893 c-12 -15 -24 -40 -27 -55 -7 -33 -8 -34 -40 -8 -17 13
-41 20 -68 20 -55 0 -85 -30 -85 -87 0 -34 6 -46 31 -67 17 -14 35 -26 41 -26
6 0 -1 -9 -15 -20 -31 -24 -44 -74 -26 -96 13 -15 45 -15 80 0 14 6 16 0 11
-44 -4 -43 -1 -55 18 -75 43 -46 97 -25 125 50 17 42 18 44 38 30 29 -21 61
-19 82 5 17 18 16 38 -1 84 -5 13 1 16 35 16 122 0 91 128 -40 161 l-47 12 1
43 c3 78 -68 114 -113 57z m-140 -143 c8 -5 12 -12 9 -15 -8 -8 -39 5 -39 16
0 11 11 11 30 -1z m325 -30 c3 -5 -1 -10 -9 -10 -8 0 -18 5 -21 10 -3 6 1 10
9 10 8 0 18 -4 21 -10z m-65 -151 c0 -6 -4 -7 -10 -4 -5 3 -10 11 -10 16 0 6
5 7 10 4 6 -3 10 -11 10 -16z m-134 -70 c-8 -19 -15 -29 -15 -22 -1 18 19 67
25 61 3 -3 -2 -21 -10 -39z"/>
<path d="M11327 7702 c-10 -10 -17 -27 -17 -36 0 -13 -5 -16 -17 -11 -51 20
-81 17 -107 -8 -33 -33 -33 -49 4 -90 l29 -34 -29 -22 c-34 -25 -39 -60 -13
-86 13 -14 28 -16 65 -12 47 6 48 6 42 -19 -8 -31 19 -64 52 -64 12 0 31 11
42 25 18 22 22 23 50 13 22 -8 40 -9 59 -2 34 12 53 56 36 84 -10 15 -8 21 12
34 34 23 34 68 -1 95 -15 12 -33 21 -40 21 -7 0 -18 17 -24 39 -21 78 -102
119 -143 73z"/>
<path d="M973 7540 c-18 -11 -33 -23 -33 -27 0 -5 -7 -16 -14 -26 -13 -17 -15
-17 -40 7 -31 31 -49 33 -77 5 -15 -15 -20 -30 -17 -54 l4 -34 -48 6 c-55 7
-88 -13 -88 -52 0 -37 42 -89 92 -113 l47 -24 -16 -33 c-19 -40 -11 -79 21
-100 31 -20 65 -7 101 37 l27 34 34 -34 c29 -29 39 -33 75 -30 32 2 47 9 63
31 29 40 27 94 -7 123 l-26 22 34 21 c66 39 55 106 -17 99 -42 -4 -44 -2 -23
26 22 29 19 92 -5 116 -25 25 -46 25 -87 0z m18 -83 c-13 -12 -20 -15 -16 -7
14 26 28 41 33 35 3 -3 -5 -16 -17 -28z m-221 -159 c0 -6 -7 -5 -15 2 -8 7
-15 17 -15 22 0 6 7 5 15 -2 8 -7 15 -17 15 -22z m298 -97 c3 -8 -1 -12 -9 -9
-7 2 -15 10 -17 17 -3 8 1 12 9 9 7 -2 15 -10 17 -17z"/>
<path d="M1592 7494 c-14 -10 -22 -25 -22 -45 0 -26 -3 -29 -25 -23 -19 5 -31
-1 -55 -24 -37 -37 -38 -55 -4 -89 18 -18 22 -29 15 -36 -16 -16 -13 -63 5
-78 9 -8 35 -13 58 -13 29 1 44 -4 54 -17 7 -11 26 -26 42 -34 69 -36 137 -3
127 61 -5 32 -4 34 22 34 41 0 81 35 81 70 0 32 -39 70 -72 70 -15 0 -18 4
-13 18 5 9 10 31 13 49 3 25 -1 34 -21 47 -28 19 -51 13 -89 -22 -23 -21 -28
-23 -28 -9 0 20 -34 57 -53 57 -7 0 -23 -7 -35 -16z"/>
<path d="M11940 7293 c-24 -8 -40 -34 -40 -63 0 -23 -3 -26 -27 -23 -96 14
-139 -90 -54 -128 36 -16 37 -20 11 -44 -22 -20 -27 -64 -8 -83 17 -17 70 -15
94 3 27 20 34 19 34 -8 0 -13 9 -32 20 -42 29 -26 71 -10 85 31 9 27 12 29 38
20 22 -8 32 -6 55 11 31 23 41 73 18 92 -13 11 -12 15 1 40 29 49 -5 101 -66
101 -11 0 -28 15 -40 35 -12 21 -36 42 -56 50 -37 16 -41 16 -65 8z"/>
<path d="M11223 7168 c-6 -7 -12 -20 -15 -28 -3 -10 -19 -15 -48 -16 -32 0
-47 -6 -61 -23 -24 -29 -24 -66 -1 -88 17 -17 16 -19 -15 -49 -69 -65 -24
-140 79 -131 46 4 46 4 53 -31 8 -45 46 -82 84 -82 37 0 61 31 61 81 l0 36 59
-1 c70 -1 101 19 101 68 0 40 -21 70 -60 86 l-30 12 30 35 c75 85 -7 174 -102
110 l-34 -24 -17 29 c-12 21 -24 28 -45 28 -16 0 -34 -6 -39 -12z m192 -78
c-3 -5 -11 -10 -16 -10 -6 0 -7 5 -4 10 3 6 11 10 16 10 6 0 7 -4 4 -10z"/>
<path d="M662 7018 c-11 -13 -23 -35 -27 -50 l-7 -26 -41 19 c-56 25 -83 24
-112 -6 -37 -36 -33 -76 10 -120 25 -25 31 -35 19 -35 -23 0 -84 -64 -84 -88
0 -53 60 -79 133 -59 22 6 27 4 27 -11 0 -24 20 -49 47 -57 17 -4 29 1 48 19
23 23 27 24 52 11 37 -20 45 -19 77 6 28 22 34 56 16 90 -9 15 -7 19 5 19 30
0 75 30 81 54 13 53 -24 94 -94 105 -36 6 -36 7 -34 51 6 85 -65 132 -116 78z
m-137 -298 c-3 -5 -14 -10 -23 -10 -15 0 -15 2 -2 10 20 13 33 13 25 0z"/>
<path d="M1796 6999 c-15 -12 -30 -38 -37 -64 l-11 -43 -30 15 c-58 29 -104
-18 -74 -77 l14 -30 -40 -7 c-45 -7 -78 -33 -78 -61 0 -47 80 -101 149 -102
31 0 33 -2 28 -27 -11 -61 40 -118 88 -99 21 8 55 66 55 94 l0 22 37 -20 c86
-46 165 0 149 86 -7 34 -46 74 -73 74 -10 0 -7 9 12 31 18 23 25 41 23 63 -3
27 -7 31 -35 34 -18 2 -41 -1 -51 -7 -18 -9 -19 -7 -14 37 3 40 0 51 -22 75
-30 32 -54 34 -90 6z m34 -84 c-6 -15 -13 -26 -16 -23 -2 3 0 18 6 33 6 15 13
26 16 23 2 -3 0 -18 -6 -33z m-120 -75 c0 -5 -2 -10 -4 -10 -3 0 -8 5 -11 10
-3 6 -1 10 4 10 6 0 11 -4 11 -10z m-33 -157 c-9 -8 -48 8 -42 18 4 5 14 5 26
-2 12 -6 18 -13 16 -16z m313 7 c0 -5 -6 -10 -14 -10 -8 0 -18 5 -21 10 -3 6
3 10 14 10 12 0 21 -4 21 -10z"/>
<path d="M12156 6789 c-14 -11 -34 -35 -42 -51 -9 -17 -19 -26 -23 -21 -15 23
-47 32 -72 20 -18 -9 -25 -22 -27 -50 -2 -22 -8 -37 -16 -37 -30 0 -66 -41
-66 -74 0 -33 25 -66 49 -66 9 0 11 -6 6 -17 -24 -59 -25 -78 -6 -103 15 -20
27 -25 63 -24 28 0 55 7 72 20 l28 20 38 -38 c43 -43 79 -49 110 -18 24 24 26
60 5 100 -15 28 -14 29 19 40 57 18 86 47 86 84 0 48 -37 79 -94 79 l-44 -1
14 34 c20 48 17 71 -11 99 -30 30 -54 31 -89 4z m44 -63 c0 -3 -4 -8 -10 -11
-5 -3 -10 -1 -10 4 0 6 5 11 10 11 6 0 10 -2 10 -4z"/>
<path d="M11286 6628 c-9 -13 -16 -43 -16 -69 l0 -46 -52 5 c-43 3 -58 0 -80
-18 -60 -47 -16 -160 62 -160 30 0 31 -1 16 -22 -29 -41 -14 -108 24 -108 10
0 32 12 49 26 l31 26 0 -27 c0 -33 24 -81 45 -89 61 -23 109 20 103 95 l-3 46
36 -4 c65 -9 93 51 44 97 l-25 23 40 18 c65 29 73 85 16 120 -34 21 -115 26
-145 9 -16 -8 -20 -5 -25 22 -14 70 -87 103 -120 56z m217 -125 c-7 -2 -19 -2
-25 0 -7 3 -2 5 12 5 14 0 19 -2 13 -5z m-293 -93 c0 -5 -9 -10 -21 -10 -11 0
-17 5 -14 10 3 6 13 10 21 10 8 0 14 -4 14 -10z m295 -60 c3 -5 2 -10 -4 -10
-5 0 -13 5 -16 10 -3 6 -2 10 4 10 5 0 13 -4 16 -10z m-98 -132 c-2 -13 -4 -5
-4 17 -1 22 1 32 4 23 2 -10 2 -28 0 -40z"/>
<path d="M321 6464 c-18 -13 -22 -24 -19 -49 3 -28 0 -34 -24 -43 -15 -6 -31
-17 -34 -26 -11 -28 6 -67 36 -84 23 -13 28 -22 23 -42 -7 -35 20 -95 51 -115
32 -21 70 -13 92 20 l16 24 31 -20 c40 -24 79 -24 100 -1 23 25 21 64 -3 95
l-20 25 37 19 c72 34 50 103 -32 103 l-43 0 11 29 c13 35 5 58 -28 73 -22 10
-30 8 -54 -10 -29 -21 -29 -21 -46 -1 -22 23 -62 25 -94 3z"/>
<path d="M1666 6415 c-9 -9 -20 -33 -26 -55 -10 -38 -11 -38 -38 -24 -45 23
-97 18 -121 -12 -30 -39 -26 -71 14 -111 l34 -34 -34 -31 c-40 -35 -52 -67
-35 -98 21 -40 69 -45 143 -15 13 5 17 2 17 -12 0 -25 30 -53 58 -53 11 0 29
11 40 25 17 22 23 24 49 14 66 -22 123 35 91 92 -16 26 -15 28 2 34 31 10 70
53 70 79 0 34 -50 73 -105 82 -34 5 -45 11 -44 23 4 42 -3 69 -21 89 -24 26
-72 29 -94 7z m-106 -319 c0 -2 -7 -6 -15 -10 -8 -3 -15 -1 -15 4 0 6 7 10 15
10 8 0 15 -2 15 -4z"/>
<path d="M12196 6209 c-14 -17 -26 -41 -26 -55 0 -29 -1 -29 -42 -4 -74 45
-148 10 -148 -70 0 -43 33 -90 65 -90 21 0 19 -5 -10 -34 -16 -16 -25 -36 -25
-55 0 -40 24 -53 70 -37 l35 12 -3 -51 c-3 -40 1 -54 18 -72 24 -26 56 -29 86
-8 19 13 30 34 48 88 5 17 7 17 31 1 55 -36 112 15 82 75 -15 30 -15 31 7 31
74 0 114 46 85 99 -17 31 -92 71 -131 71 -26 0 -28 3 -28 43 0 86 -63 117
-114 56z m54 -33 c0 -3 -4 -8 -10 -11 -5 -3 -10 -1 -10 4 0 6 5 11 10 11 6 0
10 -2 10 -4z m-185 -116 c3 -5 -1 -10 -9 -10 -8 0 -18 5 -21 10 -3 6 1 10 9
10 8 0 18 -4 21 -10z m315 -10 c8 -5 11 -12 7 -16 -4 -4 -15 0 -24 9 -18 18
-8 23 17 7z m-55 -150 c3 -5 1 -10 -4 -10 -6 0 -11 5 -11 10 0 6 2 10 4 10 3
0 8 -4 11 -10z m-129 -81 c-8 -19 -15 -29 -15 -22 -1 18 19 67 25 61 3 -3 -2
-21 -10 -39z"/>
<path d="M11210 6040 c-11 -11 -20 -29 -20 -40 0 -17 -7 -20 -50 -20 -90 0
-117 -57 -56 -115 l35 -33 -25 -23 c-29 -27 -31 -60 -6 -82 23 -21 42 -21 87
-3 l35 15 0 -35 c0 -27 5 -37 24 -46 32 -14 53 -5 73 31 15 25 20 27 39 19 32
-15 71 -2 91 28 16 25 16 29 1 55 -15 26 -15 29 3 45 39 35 8 104 -46 104 -19
0 -28 8 -39 33 -17 42 -70 87 -102 87 -13 0 -33 -9 -44 -20z"/>
<path d="M314 5955 c-14 -14 -30 -39 -36 -56 l-10 -30 -22 20 c-47 44 -102 14
-93 -51 l5 -38 -43 0 c-52 0 -75 -19 -75 -62 0 -41 57 -94 116 -109 38 -10 42
-14 34 -29 -17 -31 -11 -67 14 -97 21 -24 27 -26 52 -18 25 9 65 55 77 88 3 8
13 4 30 -12 16 -14 43 -25 69 -28 57 -6 90 25 92 88 1 35 -4 45 -32 68 l-32
27 25 22 c56 49 40 109 -27 98 -38 -6 -38 -6 -31 21 27 100 -47 164 -113 98z
m36 -75 c-6 -12 -14 -19 -17 -17 -2 3 1 15 7 27 6 12 14 19 17 17 2 -3 -1 -15
-7 -27z m-200 -185 c7 -8 8 -15 2 -15 -5 0 -15 7 -22 15 -7 8 -8 15 -2 15 5 0
15 -7 22 -15z m315 -56 c11 -17 0 -20 -21 -4 -17 13 -17 14 -2 15 9 0 20 -5
23 -11z"/>
<path d="M1336 5861 c-10 -11 -16 -29 -14 -42 2 -18 -3 -24 -29 -31 -22 -6
-35 -16 -39 -32 -6 -26 18 -82 38 -88 8 -3 11 -22 9 -56 -3 -57 8 -85 44 -108
21 -14 30 -14 54 -4 16 6 32 18 35 26 4 11 13 9 42 -11 65 -44 119 -26 117 40
-1 20 -6 42 -12 48 -18 18 -13 27 14 27 44 0 79 53 57 86 -11 17 -48 34 -76
34 -24 0 -25 1 -11 33 12 30 12 37 -1 55 -18 26 -60 29 -84 7 -16 -14 -19 -13
-34 10 -21 32 -83 35 -110 6z"/>
<path d="M12131 5601 c-10 -10 -20 -24 -22 -30 -3 -9 -12 -8 -34 3 -86 45
-153 -24 -95 -97 25 -31 25 -37 1 -37 -18 0 -61 -43 -61 -60 0 -4 9 -18 19
-31 16 -20 28 -24 65 -22 42 1 45 0 36 -17 -33 -61 41 -109 90 -60 l20 20 22
-20 c24 -22 36 -24 72 -10 34 12 48 42 37 73 -9 22 -7 26 14 31 55 14 52 82
-5 114 -20 12 -28 22 -24 34 7 24 -30 104 -54 117 -30 16 -60 13 -81 -8z"/>
<path d="M11330 5520 c-11 -11 -20 -27 -20 -35 0 -11 -11 -15 -39 -15 -31 0
-44 -6 -60 -26 -26 -34 -27 -58 0 -85 l20 -20 -30 -35 c-38 -42 -39 -67 -5
-101 23 -23 31 -25 84 -20 58 5 59 5 70 -26 37 -107 146 -100 144 9 l-1 44 54
0 c44 0 58 5 78 25 29 28 31 45 11 84 -15 27 -53 51 -83 51 -14 0 -13 3 4 23
32 34 45 67 39 92 -15 59 -69 71 -130 30 l-38 -26 -20 26 c-24 30 -51 32 -78
5z m195 -60 c-3 -5 -11 -10 -16 -10 -6 0 -7 5 -4 10 3 6 11 10 16 10 6 0 7 -4
4 -10z"/>
<path d="M165 5380 c-12 -13 -18 -35 -17 -65 0 -44 0 -45 -32 -45 -46 0 -95
-19 -106 -40 -26 -49 10 -112 71 -125 l29 -7 -25 -32 c-34 -44 -33 -88 2 -116
32 -25 62 -21 110 16 31 23 32 23 45 5 23 -32 55 -35 83 -7 14 14 25 31 25 39
0 9 9 12 29 9 22 -3 36 2 55 21 31 31 33 70 6 97 l-21 21 26 30 c50 60 21 123
-58 124 -23 0 -52 -4 -63 -8 -18 -6 -23 -3 -29 20 -17 69 -92 105 -130 63z
m-15 -365 c-7 -9 -15 -13 -17 -11 -7 7 7 26 19 26 6 0 6 -6 -2 -15z"/>
<path d="M1273 5385 c-16 -7 -41 -27 -55 -45 l-25 -32 -17 26 c-36 55 -118 15
-102 -50 6 -23 4 -26 -11 -19 -45 17 -84 18 -103 0 -48 -44 6 -148 93 -178 17
-6 17 -9 3 -29 -38 -54 -3 -136 52 -124 15 4 41 22 59 42 l31 35 15 -22 c22
-30 68 -59 95 -59 13 0 37 13 53 29 39 39 41 97 4 131 l-24 23 32 16 c17 9 38
28 46 43 21 36 2 58 -50 58 l-39 0 20 33 c24 38 25 75 5 104 -19 27 -46 33
-82 18z m11 -80 c-9 -14 -20 -25 -26 -25 -11 0 23 49 35 50 4 0 0 -11 -9 -25z
m-147 -37 c-3 -8 -6 -5 -6 6 -1 11 2 17 5 13 3 -3 4 -12 1 -19z m-97 -103 c7
-8 8 -15 2 -15 -5 0 -15 7 -22 15 -7 8 -8 15 -2 15 5 0 15 -7 22 -15z m298
-133 c2 -7 -2 -10 -12 -6 -9 3 -16 11 -16 16 0 13 23 5 28 -10z"/>
<path d="M11923 5086 c-17 -21 -25 -23 -65 -19 -38 4 -48 2 -67 -18 -24 -26
-27 -57 -7 -84 13 -18 11 -21 -14 -32 -38 -15 -64 -56 -56 -88 8 -33 46 -56
101 -63 45 -5 45 -5 45 -44 0 -30 7 -46 29 -69 16 -16 37 -29 46 -29 25 0 63
44 70 84 7 35 7 35 36 21 68 -36 139 -3 139 63 0 24 -9 38 -39 63 l-38 33 31
21 c62 41 68 111 11 137 -24 11 -55 6 -112 -18 -7 -3 -13 1 -13 10 0 22 -36
56 -59 56 -11 0 -28 -11 -38 -24z m182 -96 c-3 -5 -11 -10 -16 -10 -6 0 -7 5
-4 10 3 6 11 10 16 10 6 0 7 -4 4 -10z"/>
<path d="M11259 4969 c-36 -39 -38 -40 -49 -20 -27 51 -112 66 -149 27 -35
-37 -38 -86 -7 -123 32 -38 32 -39 1 -47 -20 -5 -55 -49 -55 -70 0 -16 37 -36
66 -36 l35 0 -16 -30 c-32 -63 -6 -130 51 -130 26 0 85 49 96 80 4 12 10 9 27
-12 41 -51 101 -28 101 37 l0 34 48 -6 c37 -4 52 -2 65 12 39 38 0 127 -70
160 -21 10 -39 19 -41 20 -1 1 4 15 13 31 19 36 19 48 0 84 -24 46 -67 42
-116 -11z m-149 -69 c8 -5 11 -12 7 -16 -4 -4 -15 0 -24 9 -18 18 -8 23 17 7z
m300 -115 c10 -12 10 -15 -3 -15 -8 0 -17 7 -21 15 -3 8 -2 15 3 15 5 0 14 -7
21 -15z m-100 -126 c0 -5 -4 -9 -10 -9 -5 0 -10 7 -10 16 0 8 5 12 10 9 6 -3
10 -10 10 -16z m-146 -33 c-9 -15 -19 -24 -22 -22 -2 3 3 17 12 32 10 14 20
23 23 21 2 -3 -3 -17 -13 -31z"/>
<path d="M979 4829 c-18 -18 -21 -29 -16 -70 6 -48 6 -49 -22 -49 -41 0 -90
-19 -101 -40 -29 -54 3 -110 70 -125 l29 -6 -19 -37 c-24 -44 -25 -70 -4 -100
23 -34 75 -30 119 9 l36 32 20 -22 c11 -11 29 -21 39 -21 26 0 60 34 60 60 0
16 7 20 30 20 44 0 72 32 68 78 -2 25 -9 40 -24 47 l-22 11 24 29 c32 41 32
89 -1 111 -25 16 -90 16 -127 0 -13 -6 -20 0 -31 27 -27 64 -88 86 -128 46z
m16 -368 c-3 -6 -11 -11 -17 -11 -6 0 -6 6 2 15 14 17 26 13 15 -4z"/>
<path d="M227 4782 c-10 -10 -17 -25 -17 -33 0 -11 -12 -15 -46 -15 -40 1 -50
-3 -68 -27 -20 -27 -20 -29 -3 -59 16 -28 16 -32 2 -48 -35 -38 -1 -100 55
-100 23 0 32 -7 45 -34 18 -38 45 -59 86 -69 34 -9 79 25 79 59 0 21 5 24 35
24 19 0 46 5 60 12 50 23 43 94 -13 119 l-30 13 24 29 c29 34 30 58 6 80 -23
21 -62 22 -88 2 -27 -20 -34 -19 -34 8 0 49 -61 74 -93 39z"/>
<path d="M11814 4565 c-12 -8 -27 -29 -34 -47 -8 -18 -15 -35 -16 -37 -2 -2
-17 8 -34 23 -51 42 -120 35 -145 -15 -24 -46 -19 -78 18 -113 l34 -32 -29
-26 c-19 -17 -28 -36 -28 -56 0 -35 18 -45 66 -36 l33 6 -10 -36 c-26 -93 52
-153 113 -88 15 15 32 40 37 55 l11 28 26 -20 c33 -26 56 -27 77 -3 19 21 22
54 7 82 -9 16 -6 18 30 13 131 -18 111 133 -22 168 -45 12 -45 13 -37 43 22
75 -39 132 -97 91z m-154 -147 c0 -13 -23 -5 -28 10 -2 7 2 10 12 6 9 -3 16
-11 16 -16z m305 -49 c11 -17 -1 -21 -15 -4 -8 9 -8 15 -2 15 6 0 14 -5 17
-11z m-75 -140 c0 -6 -4 -7 -10 -4 -5 3 -10 11 -10 16 0 6 5 7 10 4 6 -3 10
-11 10 -16z m-135 -59 c-9 -18 -19 -30 -22 -27 -3 3 3 19 13 36 23 39 30 32 9
-9z"/>
<path d="M11081 4394 c-12 -15 -21 -32 -21 -39 0 -9 -9 -10 -38 -2 -87 23
-136 -51 -74 -112 l29 -29 -29 -22 c-29 -22 -35 -48 -18 -81 12 -21 73 -27
100 -9 12 8 16 2 20 -33 4 -35 10 -43 34 -52 25 -8 31 -6 56 22 19 21 32 28
41 22 24 -15 75 -10 92 9 19 21 23 67 7 77 -7 4 -1 16 15 30 14 13 25 33 25
45 0 26 -43 70 -68 70 -15 0 -22 9 -26 34 -8 41 -65 96 -101 96 -14 0 -32 -11
-44 -26z"/>
<path d="M341 4274 c-14 -18 -21 -41 -21 -73 l0 -47 -39 4 c-33 3 -42 0 -56
-21 -15 -23 -15 -28 -1 -55 9 -17 21 -32 28 -35 16 -5 14 -6 -37 -32 -89 -45
-40 -135 75 -135 23 0 50 5 61 10 16 9 19 7 19 -10 0 -57 61 -111 100 -90 28
15 40 43 40 89 l0 40 48 -5 c84 -9 131 37 111 109 -11 42 -42 67 -81 67 -33 0
-32 -2 -12 39 11 23 13 39 7 59 -12 35 -44 40 -83 12 l-30 -21 0 30 c0 17 -11
42 -26 60 -33 40 -74 42 -103 5z m46 -91 c-3 -10 -5 -2 -5 17 0 19 2 27 5 18
2 -10 2 -26 0 -35z m-82 -93 c3 -5 2 -10 -4 -10 -5 0 -13 5 -16 10 -3 6 -2 10
4 10 5 0 13 -4 16 -10z m300 -60 c3 -5 -3 -10 -15 -10 -12 0 -18 5 -15 10 3 6
10 10 15 10 5 0 12 -4 15 -10z m-295 -96 c0 -2 -9 -4 -20 -4 -11 0 -20 4 -20
9 0 5 9 7 20 4 11 -3 20 -7 20 -9z"/>
<path d="M1249 4238 c-21 -21 -34 -28 -37 -20 -7 23 -33 42 -57 42 -29 0 -60
-41 -52 -70 4 -17 0 -20 -24 -20 -62 0 -92 -80 -43 -119 22 -17 24 -23 14 -41
-24 -45 37 -92 93 -71 20 8 28 7 34 -2 16 -27 59 -47 99 -47 53 0 78 25 72 74
-4 32 -1 37 26 46 43 15 66 39 66 70 0 33 -26 58 -69 66 -23 5 -30 11 -27 21
18 45 17 62 -3 82 -29 29 -54 26 -92 -11z"/>
<path d="M11769 3939 c-15 -15 -20 -30 -17 -51 3 -17 0 -31 -6 -33 -6 -2 -23
-6 -38 -9 -37 -8 -58 -32 -58 -65 0 -32 23 -56 63 -66 32 -8 31 -4 11 -43 -39
-79 44 -115 113 -50 23 21 23 21 23 1 0 -23 30 -53 53 -53 25 0 57 36 57 65 0
18 4 23 15 19 28 -11 64 6 80 37 19 35 12 64 -17 80 -15 8 -17 14 -9 22 6 6
11 26 11 44 0 39 -21 53 -78 53 -26 0 -42 5 -46 15 -9 24 -68 55 -103 55 -20
0 -41 -8 -54 -21z"/>
<path d="M11198 3916 c-12 -6 -34 -32 -46 -58 -23 -47 -24 -47 -48 -31 -22 14
-26 14 -50 -2 -23 -15 -26 -22 -21 -55 4 -34 2 -39 -19 -44 -13 -4 -31 -20
-40 -37 -21 -42 -4 -88 37 -96 27 -5 28 -7 22 -54 -7 -60 13 -89 61 -89 33 0
106 43 106 61 0 6 16 -3 35 -20 24 -21 46 -31 68 -31 38 0 50 7 66 37 12 24 1
65 -25 94 -14 15 -11 19 25 40 103 57 75 172 -38 156 l-40 -5 1 49 c2 72 -41
111 -94 85z m32 -75 c0 -6 -4 -13 -10 -16 -5 -3 -10 1 -10 9 0 9 5 16 10 16 6
0 10 -4 10 -9z"/>
<path d="M1433 3816 c-24 -21 -28 -31 -28 -78 l1 -53 -37 3 c-31 3 -40 0 -53
-21 -19 -28 -8 -73 19 -83 22 -9 18 -23 -9 -30 -35 -8 -68 -48 -64 -75 2 -13
18 -34 38 -47 28 -19 45 -23 85 -20 28 3 58 8 68 12 14 7 17 3 17 -19 0 -32
49 -85 79 -85 31 0 61 46 61 96 l0 44 38 -6 c72 -11 130 38 118 99 -9 46 -43
77 -84 77 -29 0 -33 3 -27 18 14 31 17 61 11 87 -8 31 -42 34 -78 5 l-25 -19
-11 38 c-22 70 -74 96 -119 57z m47 -87 c0 -18 -4 -28 -10 -24 -5 3 -10 20
-10 36 0 18 4 28 10 24 6 -3 10 -20 10 -36z m-85 -109 c3 -5 2 -10 -4 -10 -5
0 -13 5 -16 10 -3 6 -2 10 4 10 5 0 13 -4 16 -10z m310 -50 c4 -6 -5 -10 -20
-10 -15 0 -24 4 -20 10 3 6 12 10 20 10 8 0 17 -4 20 -10z m-295 -106 c0 -2
-12 -4 -26 -4 -14 0 -23 4 -20 9 6 8 46 4 46 -5z"/>
<path d="M431 3694 c-20 -15 -23 -23 -19 -69 l4 -53 -50 -5 c-116 -11 -126
-127 -14 -158 l39 -10 -21 -26 c-41 -52 -17 -133 39 -133 31 0 78 26 92 52
l12 22 19 -27 c34 -46 98 -27 98 29 0 21 5 24 35 24 71 0 102 77 48 121 -18
14 -24 23 -15 26 16 6 42 56 42 83 0 11 -9 29 -21 41 -17 17 -30 20 -67 16
-26 -2 -57 -8 -69 -12 -19 -6 -23 -4 -23 13 0 28 -53 82 -82 82 -13 0 -34 -7
-47 -16z m9 -368 c0 -3 -4 -8 -10 -11 -5 -3 -10 -1 -10 4 0 6 5 11 10 11 6 0
10 -2 10 -4z"/>
<path d="M12103 3515 c-13 -9 -28 -33 -34 -54 -11 -38 -12 -38 -54 -33 -37 4
-45 1 -55 -18 -7 -12 -10 -35 -7 -50 5 -22 0 -31 -24 -49 -50 -37 -35 -121 23
-124 25 -2 26 -4 21 -50 -5 -37 -2 -52 12 -67 29 -32 78 -26 124 15 l39 36 37
-26 c44 -29 75 -32 103 -7 34 28 33 68 -3 110 l-25 30 30 12 c64 27 89 95 52
141 -20 24 -67 31 -111 15 -23 -8 -24 -7 -18 22 16 82 -50 139 -110 97z m38
-82 c-8 -15 -10 -15 -11 -2 0 17 10 32 18 25 2 -3 -1 -13 -7 -23z"/>
<path d="M11646 3456 c-21 -8 -51 -27 -67 -42 l-29 -28 -28 27 c-30 29 -88 37
-110 15 -20 -20 -14 -73 12 -111 l24 -35 -30 -6 c-16 -3 -43 -19 -59 -35 -39
-40 -39 -82 1 -123 26 -25 36 -29 68 -26 20 3 44 8 52 11 11 6 15 0 16 -23 2
-68 71 -95 95 -37 7 17 14 34 15 36 2 2 19 -10 39 -28 86 -75 165 -10 111 92
-24 44 -24 48 -8 54 30 11 52 35 52 58 0 25 -29 55 -52 55 -25 0 -27 11 -7 43
48 80 -3 136 -95 103z m4 -66 c-24 -15 -37 -11 -16 5 11 8 22 12 25 9 3 -3 -1
-9 -9 -14z m-213 -237 c-9 -9 -20 -13 -24 -9 -4 4 -1 11 7 16 25 16 35 11 17
-7z m277 -62 c-7 -7 -34 28 -34 43 1 6 10 0 21 -13 11 -13 17 -27 13 -30z"/>
<path d="M1474 3215 c-10 -16 -15 -39 -12 -66 4 -39 3 -40 -23 -35 -63 12
-129 -29 -129 -82 0 -30 41 -71 80 -79 31 -6 31 -6 12 -27 -31 -33 -44 -66
-38 -91 15 -59 68 -71 128 -30 l37 25 25 -25 c14 -14 32 -25 41 -25 19 0 55
35 55 55 0 11 11 15 35 15 41 0 85 36 85 70 0 12 -11 32 -24 45 -23 23 -24 25
-7 35 24 12 50 67 43 92 -10 42 -87 64 -150 44 -19 -6 -22 -4 -22 18 0 13 -12
38 -26 55 -34 41 -85 43 -110 6z m-19 -355 c-3 -5 -11 -10 -16 -10 -6 0 -7 5
-4 10 3 6 11 10 16 10 6 0 7 -4 4 -10z"/>
<path d="M479 3081 c-19 -26 -24 -28 -36 -15 -20 20 -56 17 -87 -7 -27 -22
-34 -57 -14 -77 9 -9 5 -16 -15 -32 -46 -36 -30 -84 36 -109 19 -8 27 -17 27
-35 0 -14 14 -41 31 -61 26 -29 38 -35 70 -35 35 0 41 4 56 34 14 31 19 33 40
25 39 -14 71 -11 93 11 28 28 25 64 -9 98 l-30 29 30 22 c20 15 29 30 29 50 0
42 -22 55 -79 48 -47 -6 -48 -5 -43 19 6 31 -22 64 -54 64 -14 0 -32 -12 -45
-29z"/>
<path d="M12313 3002 c-18 -11 -34 -62 -27 -86 16 -57 17 -55 -23 -49 -58 7
-107 -29 -111 -84 -4 -59 31 -98 87 -97 38 1 41 0 34 -20 -30 -85 37 -141 83
-70 l16 24 22 -42 c11 -24 33 -50 49 -58 24 -13 30 -13 54 0 35 20 50 69 35
115 l-10 35 33 0 c67 0 87 60 34 104 -17 14 -26 26 -21 26 25 0 72 53 72 79 0
58 -88 89 -164 57 -21 -9 -40 -16 -41 -16 -1 0 -8 14 -15 30 -20 49 -72 74
-107 52z m227 -112 c0 -5 -6 -10 -14 -10 -8 0 -18 5 -21 10 -3 6 3 10 14 10
12 0 21 -4 21 -10z m-285 -140 c-3 -5 -13 -10 -21 -10 -8 0 -14 5 -14 10 0 6
9 10 21 10 11 0 17 -4 14 -10z m290 -10 c3 -5 1 -10 -4 -10 -6 0 -11 5 -11 10
0 6 2 10 4 10 3 0 8 -4 11 -10z m-66 -143 c1 -10 -3 -15 -9 -12 -5 3 -10 21
-9 38 0 27 2 29 9 12 5 -11 9 -28 9 -38z"/>
<path d="M11840 2960 c-11 -11 -20 -32 -20 -47 0 -25 -4 -28 -34 -29 -49 -1
-86 -28 -86 -62 0 -29 29 -63 63 -75 17 -7 17 -9 -3 -37 -26 -37 -20 -76 14
-91 18 -9 32 -7 64 10 l40 20 11 -29 c18 -54 79 -53 101 0 11 27 17 30 40 25
58 -13 106 68 64 110 -15 15 -15 17 0 34 9 10 16 27 16 39 0 27 -45 62 -82 62
-21 0 -31 7 -40 25 -14 32 -67 65 -102 65 -14 0 -35 -9 -46 -20z"/>
<path d="M1489 2611 c-19 -26 -25 -28 -45 -19 -54 25 -121 -39 -90 -86 12 -20
11 -25 -10 -49 -33 -38 -11 -89 45 -102 18 -4 32 -19 46 -48 40 -83 122 -100
151 -31 14 33 18 36 45 30 31 -6 79 8 91 27 16 25 7 60 -22 89 l-31 30 26 24
c28 26 33 65 10 84 -19 16 -66 16 -94 0 -19 -10 -21 -8 -21 18 0 61 -65 82
-101 33z"/>
<path d="M446 2559 c-14 -17 -26 -36 -26 -42 0 -7 -4 -18 -9 -26 -7 -11 -13
-11 -32 3 -30 21 -52 20 -72 -2 -19 -21 -22 -54 -7 -83 10 -17 7 -19 -30 -19
-60 0 -80 -14 -80 -55 0 -55 77 -115 148 -115 9 0 11 -9 7 -33 -14 -72 39
-126 90 -93 14 9 33 34 43 54 9 20 18 39 19 41 2 2 11 -3 21 -12 31 -28 75
-39 107 -27 39 15 54 38 55 84 0 31 -6 45 -34 70 l-34 32 24 23 c16 15 24 34
24 56 0 39 -19 50 -66 36 l-30 -9 4 53 c4 44 1 56 -17 74 -31 31 -74 27 -105
-10z m44 -69 c-16 -31 -23 -18 -8 15 7 15 14 23 16 17 2 -6 -2 -21 -8 -32z
m-125 -60 c3 -5 1 -10 -4 -10 -6 0 -11 5 -11 10 0 6 2 10 4 10 3 0 8 -4 11
-10z m-60 -141 c11 -17 0 -20 -21 -4 -17 13 -17 14 -2 15 9 0 20 -5 23 -11z
m315 -34 c14 -16 10 -18 -14 -9 -9 3 -16 10 -16 15 0 14 16 11 30 -6z"/>
<path d="M11817 2427 c-18 -19 -30 -23 -65 -19 -54 5 -82 -17 -82 -64 0 -18 5
-36 10 -39 15 -9 12 -25 -4 -25 -30 0 -66 -41 -66 -75 0 -43 36 -72 99 -81 45
-6 47 -7 43 -38 -2 -19 5 -44 17 -63 17 -27 27 -33 55 -33 41 0 76 37 76 81
l0 28 35 -15 c78 -32 139 -6 139 61 0 31 -6 44 -36 69 l-36 32 34 22 c56 37
59 109 4 132 -24 10 -37 9 -75 -3 -45 -16 -45 -16 -51 9 -12 47 -62 57 -97 21z
m188 -97 c-3 -5 -14 -10 -23 -10 -15 0 -15 2 -2 10 20 13 33 13 25 0z"/>
<path d="M12531 2404 c-12 -15 -21 -35 -21 -45 0 -14 -9 -19 -46 -21 -87 -6
-108 -84 -34 -123 l31 -16 -21 -26 c-52 -66 6 -130 80 -88 35 20 40 19 40 -10
0 -15 9 -31 25 -41 23 -15 27 -15 50 0 14 9 27 27 31 40 5 22 8 23 35 13 24
-9 33 -8 56 9 32 24 42 74 19 93 -13 11 -13 16 5 41 14 18 19 35 14 49 -7 23
-53 51 -82 51 -11 0 -26 14 -36 33 -36 66 -110 87 -146 41z"/>
<path d="M1553 2129 c-34 -12 -43 -84 -18 -141 5 -14 2 -18 -12 -18 -32 0 -63
-29 -63 -59 0 -28 26 -61 48 -61 19 0 14 -13 -18 -43 -35 -34 -39 -68 -9 -98
29 -29 115 -23 161 11 25 18 33 20 37 9 9 -27 60 -69 85 -69 40 0 58 26 54 79
-3 25 -8 54 -12 64 -7 14 -3 17 27 17 39 0 91 36 102 70 8 25 -22 87 -47 101
-11 6 -38 9 -59 7 l-39 -4 0 41 c0 54 -19 80 -52 72 -13 -4 -30 -18 -38 -32
-14 -27 -30 -33 -30 -12 -1 41 -74 82 -117 66z m47 -106 c0 -22 -8 -14 -19 20
-10 29 -9 30 4 13 8 -11 15 -26 15 -33z m260 -83 c0 -5 -9 -10 -21 -10 -11 0
-17 5 -14 10 3 6 13 10 21 10 8 0 14 -4 14 -10z m-315 -40 c3 -5 2 -10 -4 -10
-5 0 -13 5 -16 10 -3 6 -2 10 4 10 5 0 13 -4 16 -10z m50 -150 c-27 -12 -35
-12 -35 0 0 6 12 10 28 9 24 0 25 -1 7 -9z m172 -22 c-3 -8 -6 -5 -6 6 -1 11
2 17 5 13 3 -3 4 -12 1 -19z"/>
<path d="M11460 1983 c-32 -29 -40 -65 -26 -111 7 -20 4 -22 -26 -22 -41 0
-78 -24 -78 -51 0 -12 14 -28 36 -41 l35 -21 -35 -29 c-30 -25 -36 -36 -36
-68 0 -67 52 -87 125 -50 47 24 45 24 45 2 0 -29 29 -62 55 -62 25 0 65 42 65
67 0 11 9 8 30 -10 42 -36 67 -42 97 -22 23 16 25 21 21 75 -3 43 -11 67 -30
92 l-27 35 31 31 c76 76 4 159 -89 103 -35 -22 -43 -19 -43 17 0 33 -60 92
-94 92 -14 0 -40 -12 -56 -27z m40 -79 c0 -8 -4 -12 -10 -9 -5 3 -10 13 -10
21 0 8 5 12 10 9 6 -3 10 -13 10 -21z m210 -44 c0 -5 -5 -10 -11 -10 -5 0 -7
5 -4 10 3 6 8 10 11 10 2 0 4 -4 4 -10z m3 -180 c3 -11 1 -20 -4 -20 -5 0 -9
9 -9 20 0 11 2 20 4 20 2 0 6 -9 9 -20z m-253 -15 c0 -2 -13 -11 -30 -20 -16
-9 -30 -11 -30 -6 0 7 22 19 58 30 1 1 2 -1 2 -4z m107 -57 c-3 -8 -6 -5 -6 6
-1 11 2 17 5 13 3 -3 4 -12 1 -19z"/>
<path d="M325 1981 c-12 -15 -16 -32 -14 -64 l4 -45 -49 -6 c-59 -7 -96 -37
-96 -78 0 -36 38 -76 80 -84 l30 -6 -20 -28 c-34 -48 -36 -85 -7 -114 38 -38
71 -32 130 22 15 14 27 21 27 15 0 -19 30 -43 54 -43 26 0 56 29 56 53 0 12 9
17 29 17 15 0 40 9 55 21 33 26 36 81 5 102 -20 15 -20 15 5 52 15 21 26 44
26 52 0 50 -63 81 -127 64 -51 -15 -51 -15 -58 19 -13 60 -93 91 -130 51z m5
-355 c0 -2 -8 -10 -17 -17 -16 -13 -17 -12 -4 4 13 16 21 21 21 13z"/>
<path d="M9915 1945 c-14 -13 -25 -34 -25 -45 0 -12 -3 -20 -7 -18 -105 54
-154 37 -116 -41 l18 -36 -36 3 c-27 3 -43 -3 -67 -23 -62 -52 -30 -117 64
-131 33 -5 42 -10 35 -17 -15 -15 -14 -70 1 -85 16 -16 54 -15 82 3 22 15 23
14 35 -25 6 -22 22 -47 35 -55 52 -34 116 38 116 132 l0 48 35 1 c41 1 85 37
85 70 0 30 -41 61 -90 69 l-40 7 15 28 c21 40 19 83 -6 114 -29 36 -99 37
-134 1z m50 -56 c-6 -16 -9 -18 -16 -8 -4 8 -3 19 3 26 15 18 21 9 13 -18z
m-190 -169 c7 -12 -12 -12 -40 0 -18 8 -17 9 7 9 15 1 30 -3 33 -9z m75 -104
c0 -3 -4 -8 -10 -11 -5 -3 -10 -1 -10 4 0 6 5 11 10 11 6 0 10 -2 10 -4z m146
-53 c-11 -11 -17 4 -9 23 7 18 8 18 11 1 2 -10 1 -21 -2 -24z"/>
<path d="M12513 1861 c-15 -25 -21 -28 -58 -23 -35 3 -46 0 -64 -19 -24 -26
-27 -57 -7 -84 13 -18 11 -22 -21 -50 -68 -59 -38 -125 61 -133 45 -4 56 -8
56 -22 0 -53 46 -110 90 -110 25 0 60 49 60 83 l0 35 63 -5 c57 -5 66 -3 85
18 32 33 28 75 -9 110 -17 16 -38 29 -47 29 -10 0 -2 13 21 35 61 59 46 135
-26 135 -18 0 -45 -7 -61 -15 -35 -19 -46 -19 -46 -1 0 23 -29 46 -56 46 -17
0 -30 -9 -41 -29z m187 -81 c-8 -5 -17 -7 -19 -4 -3 3 1 9 9 14 8 5 17 7 19 4
3 -3 -1 -9 -9 -14z"/>
<path d="M3720 1843 c-22 -28 -23 -68 -4 -130 5 -19 2 -23 -14 -23 -11 0 -34
-12 -51 -26 -65 -54 -27 -133 58 -121 l39 5 5 -44 c13 -120 121 -143 157 -32
l16 46 28 -25 c60 -52 155 -3 127 65 -7 17 -23 40 -37 53 l-24 22 25 23 c41
38 26 86 -29 100 -17 4 -23 13 -24 36 0 17 -10 40 -21 51 -27 27 -80 27 -99
-1 l-13 -20 -36 24 c-47 31 -76 31 -103 -3z m296 -300 c-7 -7 -26 7 -26 19 0
6 6 6 15 -2 9 -7 13 -15 11 -17z"/>
<path d="M10396 1851 c-21 -23 -39 -86 -31 -110 4 -15 -1 -19 -33 -25 -71 -11
-114 -68 -84 -112 12 -19 49 -34 82 -34 27 0 31 -3 25 -17 -4 -10 -9 -36 -12
-58 -10 -84 68 -126 126 -67 15 15 30 34 33 42 4 12 13 8 36 -17 87 -93 178
-11 114 103 -8 15 -5 22 19 36 40 25 41 72 1 95 -25 15 -28 20 -19 42 12 35
-5 78 -39 93 -22 10 -31 9 -57 -5 -28 -17 -31 -17 -40 -1 -30 54 -88 71 -121
35z m214 -364 c0 -5 -4 -5 -10 -2 -5 3 -10 14 -10 23 0 15 2 15 10 2 5 -8 10
-19 10 -23z"/>
<path d="M2061 1824 c-20 -25 -26 -53 -22 -100 1 -18 -6 -22 -40 -27 -81 -11
-117 -83 -63 -126 15 -12 41 -21 61 -21 30 0 33 -2 23 -19 -18 -34 -12 -109
10 -131 29 -29 76 -26 109 8 15 15 30 33 32 41 3 9 16 2 41 -23 39 -39 70 -45
106 -20 26 18 30 74 7 114 -19 34 -19 37 9 44 43 11 47 88 6 101 -17 6 -20 12
-14 42 8 43 -10 79 -46 91 -26 10 -57 0 -71 -21 -4 -5 -14 4 -23 21 -30 58
-90 70 -125 26z m213 -349 c3 -8 1 -15 -3 -15 -5 0 -11 7 -15 15 -3 8 -1 15 3
15 5 0 11 -7 15 -15z"/>
<path d="M3285 1825 c-14 -13 -25 -33 -25 -45 0 -24 -8 -25 -34 -5 -26 19 -80
19 -96 0 -10 -12 -9 -22 7 -53 l19 -38 -23 4 c-87 17 -151 -77 -86 -127 14
-12 44 -24 65 -27 31 -5 38 -10 32 -23 -16 -39 -15 -53 1 -71 21 -24 67 -26
85 -5 19 23 27 18 33 -21 7 -44 32 -74 62 -74 49 0 103 93 93 162 -4 27 -3 28
34 28 44 0 88 35 88 69 0 30 -56 71 -96 71 -19 0 -34 2 -34 3 0 2 7 19 16 36
21 41 13 99 -17 124 -32 26 -94 22 -124 -8z m55 -42 c0 -5 -5 -15 -10 -23 -8
-12 -10 -11 -10 8 0 12 5 22 10 22 6 0 10 -3 10 -7z m-200 -183 c12 -8 12 -10
-5 -10 -11 0 -27 5 -35 10 -12 8 -12 10 5 10 11 0 27 -5 35 -10z m80 -104 c0
-3 -4 -8 -10 -11 -5 -3 -10 -1 -10 4 0 6 5 11 10 11 6 0 10 -2 10 -4z m141
-49 c-8 -8 -11 -7 -11 4 0 20 13 34 18 19 3 -7 -1 -17 -7 -23z"/>
<path d="M9356 1807 c-13 -13 -25 -30 -28 -38 -4 -11 -10 -9 -30 9 -27 24 -67
29 -86 10 -17 -17 -15 -63 3 -98 l16 -30 -31 0 c-21 0 -34 -8 -46 -25 -15 -23
-15 -27 0 -49 8 -14 24 -27 35 -31 16 -5 19 -12 14 -40 -8 -49 17 -85 60 -85
18 0 38 5 45 12 9 9 16 8 30 -5 40 -37 102 -4 102 53 0 23 5 31 25 36 14 3 38
22 55 40 49 56 35 117 -29 130 -23 5 -26 10 -26 49 0 77 -60 111 -109 62z"/>
<path d="M8265 1803 c-28 -7 -62 -41 -69 -69 -6 -24 -6 -24 -26 -4 -22 22 -63
35 -85 26 -25 -9 -29 -35 -12 -72 l17 -34 -48 0 c-59 0 -96 -31 -90 -76 4 -34
57 -74 99 -74 l28 0 -15 -35 c-26 -64 22 -103 85 -71 31 16 31 16 31 -9 0
-101 98 -116 141 -22 10 23 19 59 19 80 0 37 0 37 40 37 43 0 90 34 90 64 0
31 -44 67 -88 73 l-43 6 17 25 c25 38 24 107 -1 131 -22 22 -59 32 -90 24z
m15 -60 c0 -14 -19 -38 -25 -32 -8 8 5 39 16 39 5 0 9 -3 9 -7z m-215 -173
c18 -8 18 -9 -5 -9 -14 0 -32 4 -40 9 -12 8 -12 10 5 9 11 0 29 -4 40 -9z m75
-114 c0 -3 -4 -8 -10 -11 -5 -3 -10 -1 -10 4 0 6 5 11 10 11 6 0 10 -2 10 -4z
m141 -59 c-8 -8 -11 -7 -11 4 0 20 13 34 18 19 3 -7 -1 -17 -7 -23z"/>
<path d="M4333 1774 c-21 -21 -24 -31 -19 -63 l6 -37 -35 4 c-20 2 -42 -1 -50
-8 -22 -18 -18 -58 8 -83 21 -21 21 -23 5 -40 -24 -23 -23 -72 3 -98 16 -16
28 -19 53 -15 28 5 34 3 43 -17 21 -46 81 -39 111 13 13 22 24 30 46 30 16 0
43 9 61 20 58 36 64 107 11 131 -24 11 -24 13 -11 40 21 39 19 75 -5 99 -26
26 -50 25 -94 -5 -28 -19 -36 -21 -36 -9 0 17 -44 64 -60 64 -6 0 -22 -12 -37
-26z"/>
<path d="M8644 1775 c-16 -25 -16 -90 0 -126 5 -13 0 -19 -22 -27 -106 -37
-92 -166 17 -148 l38 6 7 -49 c4 -27 15 -59 25 -72 39 -49 124 -13 137 58 l6
33 27 -19 c54 -38 108 -34 131 9 15 27 -2 79 -34 109 l-24 22 24 24 c13 13 24
30 24 37 0 26 -31 58 -56 58 -21 0 -24 5 -24 35 0 67 -78 101 -117 51 l-19
-23 -28 23 c-38 33 -90 33 -112 -1z m297 -292 c13 -16 12 -17 -3 -4 -10 7 -18
15 -18 17 0 8 8 3 21 -13z"/>
<path d="M2753 1750 c-12 -5 -30 -21 -39 -35 l-17 -26 -22 27 c-25 32 -71 36
-92 8 -14 -18 -13 -58 2 -96 6 -15 2 -18 -22 -18 -36 0 -53 -16 -53 -50 0 -27
27 -60 48 -60 15 0 16 -17 2 -25 -17 -11 -11 -64 10 -85 22 -22 60 -26 78 -8
9 9 17 7 35 -10 13 -12 32 -22 43 -22 26 0 61 38 66 69 2 18 12 27 35 33 87
22 113 145 35 163 -28 6 -29 8 -25 53 6 68 -30 103 -84 82z"/>
<path d="M11054 1716 l-33 -33 -15 23 c-22 32 -52 39 -83 19 -22 -15 -25 -22
-20 -54 3 -20 9 -45 13 -55 6 -16 4 -18 -9 -13 -25 9 -64 -9 -72 -33 -8 -25
16 -66 44 -75 17 -5 18 -8 6 -31 -29 -57 26 -121 81 -95 23 10 30 9 49 -9 12
-11 29 -20 39 -20 25 0 66 45 66 73 0 19 7 26 30 31 89 17 122 146 42 162 -28
6 -29 8 -24 54 3 39 1 51 -17 69 -30 30 -58 26 -97 -13z"/>
<path d="M7644 1686 l-28 -35 -29 25 c-33 28 -45 29 -75 8 -26 -18 -28 -53 -7
-94 l16 -30 -31 0 c-62 0 -76 -91 -15 -106 29 -7 28 -5 15 -39 -22 -58 43
-115 94 -82 22 15 25 15 41 -3 10 -11 28 -20 41 -20 27 0 64 43 64 75 0 16 8
25 24 29 35 9 86 71 86 106 0 30 -39 70 -69 70 -13 0 -15 9 -13 44 7 84 -64
116 -114 52z"/>
<path d="M7082 1654 c-12 -8 -22 -22 -22 -30 0 -18 -3 -18 -42 6 -45 27 -73
25 -98 -7 -18 -23 -21 -36 -15 -68 3 -22 13 -50 21 -62 8 -13 10 -23 5 -23 -6
0 -26 -14 -46 -31 -60 -53 -41 -129 34 -129 18 0 41 4 51 10 16 9 19 5 25 -32
8 -48 52 -98 85 -98 35 0 80 53 80 94 l0 37 30 -16 c105 -54 174 33 91 116
-37 37 -37 39 -20 55 37 33 11 94 -38 94 -16 0 -23 8 -28 30 -7 32 -47 70 -74
70 -9 0 -27 -7 -39 -16z m163 -285 c11 -17 -1 -21 -15 -4 -8 9 -8 15 -2 15 6
0 14 -5 17 -11z"/>
<path d="M4917 1619 c-12 -7 -17 -23 -17 -49 0 -46 -3 -47 -37 -20 -33 26 -94
27 -116 2 -29 -32 -21 -70 23 -115 22 -22 39 -41 38 -42 -2 -1 -13 -8 -25 -14
-56 -29 -31 -101 35 -101 29 0 33 -3 27 -17 -4 -10 -9 -34 -12 -54 -14 -97
110 -89 175 12 l23 36 39 -19 c41 -21 69 -18 95 8 25 26 18 63 -20 101 l-34
34 39 38 c52 50 55 96 9 135 -37 31 -80 34 -119 6 l-28 -20 -12 31 c-16 37
-58 61 -83 48z m183 -98 c0 -5 -7 -14 -15 -21 -12 -10 -15 -10 -15 2 0 8 3 18
7 21 9 10 23 9 23 -2z m-275 -41 c10 -11 14 -20 8 -20 -5 0 -18 9 -28 20 -10
11 -14 20 -8 20 5 0 18 -9 28 -20z m22 -146 c-3 -3 -12 -4 -19 -1 -8 3 -5 6 6
6 11 1 17 -2 13 -5z m103 -109 c-7 -9 -15 -13 -17 -11 -7 7 7 26 19 26 6 0 6
-6 -2 -15z"/>
<path d="M6504 1510 c-37 -15 -66 -61 -62 -97 4 -32 3 -33 -28 -27 -41 7 -93
-19 -94 -47 0 -4 14 -20 30 -36 l30 -29 -36 -17 c-38 -18 -65 -66 -56 -99 11
-44 79 -59 145 -33 14 6 17 2 17 -27 0 -41 15 -58 52 -58 19 0 34 9 48 28 l21
28 38 -38 c21 -21 43 -38 49 -38 6 0 23 11 39 24 24 20 27 31 27 78 0 37 -6
64 -18 83 -18 28 -18 30 -1 40 72 43 88 83 48 123 -20 20 -31 23 -61 19 -20
-3 -45 -8 -54 -12 -16 -6 -18 -1 -18 38 0 73 -58 121 -116 97z m10 -99 c-8 -9
-22 12 -17 26 6 15 7 14 13 -3 4 -10 6 -21 4 -23z m-109 -231 c-11 -5 -29 -9
-40 -9 -17 -1 -17 1 -5 9 8 5 26 9 40 9 23 0 23 -1 5 -9z m268 -30 c3 -11 1
-20 -4 -20 -5 0 -9 9 -9 20 0 11 2 20 4 20 2 0 6 -9 9 -20z"/>
<path d="M430 1390 c-11 -11 -20 -31 -20 -45 0 -22 -3 -24 -29 -19 -23 5 -35
1 -55 -19 -32 -32 -33 -63 -4 -94 17 -18 19 -26 10 -35 -35 -35 2 -88 62 -88
29 0 44 -8 72 -35 64 -64 161 -44 152 31 -4 30 -2 32 34 38 44 7 78 36 78 66
0 27 -43 70 -70 70 -24 0 -25 8 -6 44 31 60 -19 104 -80 71 -19 -10 -34 -22
-34 -27 0 -4 -4 -8 -10 -8 -5 0 -10 7 -10 15 0 19 -36 55 -55 55 -8 0 -24 -9
-35 -20z"/>
<path d="M5410 1351 c-19 -18 -32 -44 -36 -70 -6 -41 -7 -41 -49 -41 -111 0
-131 -122 -24 -145 34 -8 33 -3 14 -48 -21 -52 -19 -84 10 -112 34 -34 68 -32
112 9 l37 33 21 -31 c62 -93 160 -52 135 57 -13 56 -13 57 9 57 25 0 51 26 51
51 0 11 -11 30 -24 42 -18 17 -22 27 -15 38 17 27 10 75 -14 97 -24 23 -61 29
-72 12 -11 -17 -25 -11 -35 15 -13 34 -46 65 -71 65 -11 0 -34 -13 -49 -29z
m160 -372 c0 -6 -4 -7 -10 -4 -5 3 -10 11 -10 16 0 6 5 7 10 4 6 -3 10 -11 10
-16z"/>
<path d="M12207 1352 c-40 -44 -43 -105 -6 -138 19 -17 19 -18 -13 -28 -40
-14 -68 -58 -52 -83 6 -11 26 -19 48 -21 42 -4 43 -5 16 -39 -26 -33 -27 -94
-2 -116 31 -29 70 -21 113 21 l38 38 21 -28 c37 -51 100 -26 100 40 l0 31 45
-16 c41 -14 48 -14 70 1 46 30 27 111 -38 160 -19 15 -39 26 -45 26 -7 0 -4
13 8 33 26 41 25 82 -1 108 -27 27 -62 19 -108 -24 -26 -25 -35 -29 -39 -17
-3 8 -19 27 -35 43 -35 32 -95 37 -120 9z m263 -56 c0 -3 -4 -8 -10 -11 -5 -3
-10 -1 -10 4 0 6 5 11 10 11 6 0 10 -2 10 -4z m-212 -42 c-10 -10 -28 6 -28
24 0 15 1 15 17 -1 9 -9 14 -19 11 -23z m282 -146 c0 -6 -7 -5 -15 2 -8 7 -15
17 -15 22 0 6 7 5 15 -2 8 -7 15 -17 15 -22z m-123 -100 c-3 -8 -6 -5 -6 6 -1
11 2 17 5 13 3 -3 4 -12 1 -19z m-142 -18 c-10 -11 -20 -18 -23 -15 -3 3 3 14
13 25 10 11 20 18 23 15 3 -3 -3 -14 -13 -25z"/>
<path d="M6026 1207 c-13 -13 -25 -30 -28 -38 -4 -11 -12 -8 -33 14 -32 31
-56 34 -80 10 -17 -16 -17 -68 -1 -105 7 -14 3 -18 -16 -18 -62 0 -76 -81 -17
-103 21 -8 27 -16 23 -27 -17 -41 -15 -60 9 -84 30 -29 53 -33 84 -11 18 13
22 12 38 -5 34 -38 90 -13 101 45 5 27 14 38 43 52 23 12 43 32 55 57 17 35
18 42 5 65 -8 14 -29 30 -47 36 -28 8 -32 13 -27 35 6 29 -9 80 -28 92 -23 15
-58 8 -81 -15z"/>
<path d="M3677 1169 c-9 -5 -24 -23 -32 -39 l-15 -29 -25 24 c-62 63 -123 -2
-80 -85 15 -29 15 -30 -5 -30 -37 0 -60 -19 -60 -49 0 -30 27 -61 52 -61 14 0
15 -5 5 -29 -13 -36 2 -72 39 -91 19 -11 27 -10 49 4 23 15 28 15 47 1 47 -32
92 -9 104 53 4 18 14 34 25 37 31 10 79 73 79 105 0 36 -31 70 -62 70 -20 0
-23 5 -23 44 0 69 -46 105 -98 75z"/>
<path d="M4135 1130 c-4 -11 -4 -33 0 -49 l6 -29 -41 14 c-35 12 -45 12 -75 0
-65 -27 -52 -106 23 -143 l39 -19 -23 -28 c-13 -15 -24 -32 -24 -39 1 -34 46
-60 86 -48 l29 8 -3 -49 c-5 -59 9 -78 53 -78 46 0 91 40 112 100 14 41 20 47
34 39 50 -26 119 3 119 50 0 33 -15 53 -58 79 -29 17 -31 21 -17 32 23 19 45
65 45 94 0 37 -39 76 -82 83 -33 5 -41 2 -73 -30 -19 -19 -35 -31 -35 -26 0 6
-11 21 -25 34 -31 32 -81 34 -90 5z m215 -44 c0 -2 -7 -9 -15 -16 -12 -10 -15
-10 -15 4 0 9 7 16 15 16 8 0 15 -2 15 -4z m-264 -101 c10 -8 14 -15 8 -15 -5
0 -19 7 -30 15 -10 8 -14 15 -8 15 5 0 19 -7 30 -15z m49 -135 c-3 -5 -11 -10
-16 -10 -6 0 -7 5 -4 10 3 6 11 10 16 10 6 0 7 -4 4 -10z m129 -84 c-6 -16
-24 -23 -24 -8 0 10 22 33 27 28 2 -2 1 -11 -3 -20z"/>
<path d="M3097 1072 c-10 -10 -17 -24 -17 -30 0 -7 -13 -4 -32 8 -67 40 -118
16 -118 -56 0 -21 7 -52 16 -69 14 -28 14 -31 -2 -40 -41 -23 -64 -55 -64 -88
0 -60 53 -83 122 -53 13 6 18 1 24 -29 9 -52 48 -95 85 -95 45 0 79 39 79 90
l0 41 30 -16 c63 -32 130 -9 130 47 0 22 -11 41 -38 68 l-37 38 20 26 c18 25
18 29 4 54 -10 19 -24 28 -47 30 -23 2 -32 8 -32 21 0 10 -9 30 -21 45 -25 32
-77 36 -102 8z m178 -272 c3 -5 2 -10 -4 -10 -5 0 -13 5 -16 10 -3 6 -2 10 4
10 5 0 13 -4 16 -10z"/>
<path d="M838 1009 c-9 -5 -19 -28 -23 -50 -4 -23 -10 -37 -14 -32 -14 22 -58
43 -87 43 -70 0 -86 -75 -29 -138 l35 -39 -25 -11 c-29 -13 -41 -52 -26 -80
11 -21 63 -38 81 -27 14 9 12 -5 -5 -35 -38 -67 2 -123 74 -101 37 11 111 79
111 101 0 6 13 1 28 -10 40 -29 102 -25 118 9 15 29 3 70 -31 101 l-25 23 39
34 c62 53 64 111 5 150 -34 22 -81 19 -108 -6 l-22 -21 -13 35 c-14 40 -58 68
-83 54z m172 -114 c-7 -9 -15 -13 -17 -11 -7 7 7 26 19 26 6 0 6 -6 -2 -15z
m-269 -21 c22 -25 22 -26 3 -16 -12 6 -24 18 -28 27 -8 21 -3 19 25 -11z m16
-140 c-3 -3 -12 -4 -19 -1 -8 3 -5 6 6 6 11 1 17 -2 13 -5z m99 -119 c-21 -16
-32 -13 -21 4 3 6 14 11 23 11 15 -1 15 -2 -2 -15z"/>
<path d="M2573 1001 c-35 -10 -63 -38 -69 -71 -6 -29 -7 -29 -35 -15 -76 40
-128 -6 -78 -69 l20 -26 -31 0 c-57 0 -99 -34 -100 -82 0 -38 42 -68 95 -68
l43 0 -5 -40 c-4 -25 -1 -46 7 -55 16 -19 60 -19 88 1 20 14 23 14 28 -3 15
-48 26 -64 48 -75 55 -24 112 55 104 143 l-5 47 38 6 c38 6 79 44 79 73 0 8
-11 25 -25 38 -18 19 -35 25 -70 25 -42 0 -45 2 -35 19 18 34 12 109 -10 131
-11 11 -24 20 -29 20 -5 0 -15 2 -23 4 -7 2 -23 1 -35 -3z m7 -76 c0 -14 -4
-25 -10 -25 -11 0 -14 33 -3 43 11 11 13 8 13 -18z m-182 -192 c-10 -2 -28 -2
-40 0 -13 2 -5 4 17 4 22 1 32 -1 23 -4z m92 -97 c0 -3 -4 -8 -10 -11 -5 -3
-10 -1 -10 4 0 6 5 11 10 11 6 0 10 -2 10 -4z m146 -43 c-11 -11 -17 4 -9 23
7 18 8 18 11 1 2 -10 1 -21 -2 -24z"/>
<path d="M4711 981 c-19 -19 -41 -79 -41 -114 0 -10 -4 -15 -10 -12 -16 10
-77 -6 -99 -26 -46 -44 -7 -119 61 -119 25 0 29 -3 23 -17 -30 -75 -28 -123 8
-148 36 -25 67 -18 109 25 21 23 38 37 38 31 0 -5 13 -23 29 -40 22 -23 38
-31 64 -31 59 0 83 56 53 125 -12 28 -11 30 18 45 42 21 49 71 13 95 -23 14
-24 19 -14 51 9 29 8 39 -10 62 -22 29 -61 39 -91 23 -16 -9 -23 -4 -43 27
-29 45 -76 55 -108 23z m179 -366 c0 -8 -2 -15 -4 -15 -2 0 -6 7 -10 15 -3 8
-1 15 4 15 6 0 10 -7 10 -15z"/>
<path d="M9091 941 c-10 -6 -12 -22 -9 -55 5 -41 4 -45 -13 -36 -10 6 -35 10
-57 10 -43 0 -82 -31 -82 -67 0 -27 42 -71 80 -84 l30 -11 -21 -29 c-40 -56
-3 -100 70 -86 28 6 29 5 24 -32 -10 -76 38 -110 101 -72 33 21 76 90 76 123
0 12 10 14 50 10 39 -4 55 -1 70 13 41 37 15 99 -54 125 l-29 11 21 22 c22 23
42 68 42 93 0 9 -13 29 -29 45 -43 43 -93 41 -137 -6 -30 -32 -33 -33 -39 -15
-4 11 -19 27 -35 35 -33 17 -40 18 -59 6z m193 -65 c-6 -16 -24 -23 -24 -8 0
10 22 33 27 28 2 -2 1 -11 -3 -20z m-248 -101 c10 -8 14 -15 8 -15 -5 0 -19 7
-30 15 -10 8 -14 15 -8 15 5 0 19 -7 30 -15z m64 -129 c0 -2 -7 -6 -15 -10 -8
-3 -15 -1 -15 4 0 6 7 10 15 10 8 0 15 -2 15 -4z m125 -85 c-3 -6 -11 -11 -17
-11 -6 0 -6 6 2 15 14 17 26 13 15 -4z"/>
<path d="M11957 943 c-20 -5 -47 -52 -47 -82 0 -20 -1 -20 -34 -4 -32 15 -37
15 -60 -1 -35 -22 -33 -57 5 -101 20 -23 26 -35 17 -35 -21 0 -48 -33 -48 -57
0 -27 31 -53 63 -53 23 0 27 -4 27 -29 0 -20 9 -36 26 -50 35 -28 58 -26 87 5
21 22 28 24 46 15 42 -23 89 30 75 85 -5 18 0 32 14 47 69 76 49 175 -34 165
-31 -4 -35 -1 -45 30 -11 35 -45 73 -63 71 -6 -1 -19 -3 -29 -6z"/>
<path d="M8605 885 c-14 -13 -25 -31 -25 -40 0 -20 -7 -19 -37 5 -32 25 -55
25 -76 2 -23 -25 -21 -64 3 -95 l20 -25 -28 -7 c-37 -9 -52 -23 -52 -50 0 -24
42 -65 67 -65 10 0 11 -4 3 -19 -13 -25 1 -64 32 -85 30 -21 44 -20 69 5 19
19 22 19 38 5 43 -39 101 0 101 68 0 16 7 27 20 31 31 10 70 68 70 103 0 38
-30 72 -64 72 -20 0 -24 6 -29 41 -10 76 -64 102 -112 54z"/>
<path d="M1301 849 c-24 -26 -34 -75 -22 -116 9 -30 8 -31 -24 -37 -18 -4 -45
-18 -59 -33 -53 -52 -21 -113 60 -113 l46 0 -6 -34 c-9 -46 15 -103 49 -116
45 -17 96 17 110 73 l7 27 34 -30 c41 -35 85 -39 114 -10 27 27 25 68 -5 112
l-24 36 25 17 c36 24 31 74 -11 95 -24 12 -29 20 -27 43 8 64 -58 105 -109 68
l-28 -21 -30 30 c-35 35 -72 39 -100 9z m259 -330 c0 -6 -4 -7 -10 -4 -5 3
-10 11 -10 16 0 6 5 7 10 4 6 -3 10 -11 10 -16z"/>
<path d="M1983 825 l-36 -36 -22 21 c-24 22 -65 26 -83 8 -17 -17 -15 -63 3
-98 15 -30 15 -30 -14 -30 -32 0 -61 -22 -61 -46 0 -16 38 -58 59 -65 9 -3 10
-11 2 -30 -12 -32 4 -69 39 -86 20 -10 29 -9 51 4 25 15 28 15 44 0 17 -18 52
-22 71 -9 16 11 34 48 34 71 0 12 7 21 15 21 24 0 83 59 90 91 9 38 -15 75
-52 83 -26 6 -28 10 -28 52 0 36 -5 50 -24 65 -33 27 -48 24 -88 -16z"/>
<path d="M9653 805 c-26 -18 -44 -76 -37 -115 6 -25 3 -28 -30 -34 -114 -22
-118 -146 -4 -146 33 0 38 -3 34 -17 -16 -54 -16 -73 -3 -106 27 -65 104 -58
145 13 l16 28 34 -29 c56 -50 132 -32 132 32 0 14 -9 42 -20 64 -24 47 -24 45
-7 45 20 0 47 33 47 57 0 21 -29 53 -47 53 -7 0 -9 15 -6 39 5 33 1 44 -20 65
-31 31 -56 33 -90 6 -25 -20 -26 -20 -32 0 -8 24 -52 60 -74 60 -9 0 -26 -7
-38 -15z m217 -356 c0 -6 -4 -7 -10 -4 -5 3 -10 11 -10 16 0 6 5 7 10 4 6 -3
10 -11 10 -16z"/>
<path d="M11452 783 c-7 -3 -18 -16 -23 -30 l-9 -24 -26 20 c-33 26 -85 27
-107 3 -22 -24 -22 -84 -1 -125 14 -26 14 -32 3 -36 -8 -2 -29 -19 -46 -37
-41 -40 -43 -75 -6 -104 27 -21 39 -22 101 -4 19 6 22 3 22 -26 0 -123 154
-135 163 -12 2 36 3 37 37 17 39 -22 83 -19 109 9 30 32 22 68 -25 113 l-35
32 21 21 c24 24 25 38 4 68 -10 14 -25 22 -45 22 -24 0 -29 4 -29 25 0 49 -61
87 -108 68z"/>
<path d="M5245 755 c-17 -16 -25 -35 -25 -59 0 -34 -1 -35 -35 -29 -21 3 -41
1 -50 -7 -21 -18 -19 -64 5 -85 19 -17 19 -18 -2 -35 -26 -21 -27 -74 -1 -102
13 -15 26 -19 50 -15 28 5 33 3 33 -13 0 -11 11 -27 25 -36 31 -20 65 -9 91
31 13 20 24 25 60 25 88 0 139 86 81 136 l-26 22 21 42 c19 39 20 45 7 69 -18
32 -69 40 -104 17 -30 -20 -35 -20 -35 -1 0 18 -44 65 -60 65 -6 0 -22 -11
-35 -25z"/>
<path d="M8062 759 c-13 -5 -29 -22 -35 -38 -10 -26 -12 -27 -36 -15 -97 51
-158 -48 -85 -136 l25 -29 -25 -16 c-13 -9 -32 -32 -41 -51 -14 -29 -14 -38
-3 -61 20 -42 57 -51 106 -25 l40 21 5 -28 c3 -16 18 -42 32 -60 34 -39 75
-42 111 -5 22 21 25 32 22 70 -3 36 0 43 12 38 8 -3 31 -8 50 -11 44 -6 90 26
90 64 0 28 -60 93 -86 93 -18 0 -18 8 1 26 36 36 -5 104 -55 91 -16 -4 -24 2
-35 29 -8 20 -25 38 -40 44 -15 6 -27 10 -28 9 -1 0 -13 -4 -25 -10z m188
-269 c8 -5 11 -10 5 -10 -5 0 -17 5 -25 10 -8 5 -10 10 -5 10 6 0 17 -5 25
-10z"/>
<path d="M10885 725 c-14 -13 -25 -33 -25 -45 0 -25 -12 -26 -35 0 -25 28 -91
28 -100 0 -3 -10 1 -33 9 -49 9 -17 16 -31 16 -33 0 -2 -19 -2 -43 0 -32 3
-49 -2 -70 -18 -55 -43 -25 -110 59 -131 l42 -11 -13 -32 c-12 -28 -12 -36 1
-54 18 -26 60 -29 91 -7 20 14 21 13 26 -28 6 -41 34 -77 62 -77 22 0 67 42
81 76 8 19 14 50 14 71 0 38 0 38 39 38 44 0 91 35 91 67 0 27 -46 66 -86 74
-19 3 -34 7 -34 9 0 1 7 20 16 40 19 47 11 99 -19 120 -34 24 -94 19 -122 -10z
m51 -51 c-3 -9 -6 -18 -6 -20 0 -3 -4 -3 -10 1 -11 7 -2 35 12 35 6 0 7 -7 4
-16z m-201 -167 c7 -7 4 -8 -8 -3 -10 3 -25 6 -33 6 -8 0 -14 5 -14 11 0 12
40 2 55 -14z m330 -7 c3 -5 1 -10 -4 -10 -6 0 -11 5 -11 10 0 6 2 10 4 10 3 0
8 -4 11 -10z m-260 -100 c-3 -5 -11 -10 -16 -10 -6 0 -7 5 -4 10 3 6 11 10 16
10 6 0 7 -4 4 -10z m141 -57 c-11 -11 -17 4 -9 23 7 18 8 18 11 1 2 -10 1 -21
-2 -24z"/>
<path d="M10187 682 c-19 -21 -21 -49 -7 -86 9 -25 8 -26 -23 -26 -40 0 -57
-15 -57 -52 0 -18 8 -33 25 -44 20 -13 23 -20 15 -34 -26 -48 2 -110 49 -110
15 0 32 5 38 11 7 7 15 2 27 -15 23 -35 67 -35 95 0 12 15 21 35 21 45 0 12 7
19 20 19 31 0 75 26 94 55 25 38 17 76 -20 100 -30 19 -31 22 -27 71 5 45 3
53 -18 68 -33 23 -54 20 -91 -13 l-32 -28 -24 28 c-27 33 -61 37 -85 11z"/>
<path d="M5777 613 c-4 -3 -7 -26 -7 -50 l0 -43 -34 17 c-39 18 -77 12 -107
-18 -34 -34 -9 -93 54 -126 l29 -15 -22 -23 c-45 -48 -4 -113 59 -95 l27 8 -4
-52 c-5 -64 18 -92 67 -81 37 8 100 75 108 115 6 30 17 38 28 20 3 -5 25 -10
49 -10 93 0 103 90 15 136 l-30 15 30 35 c51 57 41 132 -20 153 -50 17 -68 13
-102 -20 -21 -22 -33 -27 -36 -18 -13 40 -82 75 -104 52z m203 -72 c0 -12 -20
-25 -27 -18 -7 7 6 27 18 27 5 0 9 -4 9 -9z m-255 -91 c3 -6 3 -10 -2 -10 -11
1 -43 26 -43 34 0 9 37 -11 45 -24z m35 -130 c0 -5 -4 -10 -10 -10 -5 0 -10 5
-10 10 0 6 5 10 10 10 6 0 10 -4 10 -10z m120 -95 c-7 -9 -15 -13 -18 -10 -3
2 1 11 8 20 7 9 15 13 18 10 3 -2 -1 -11 -8 -20z"/>
<path d="M7525 586 c-31 -14 -55 -51 -55 -88 0 -15 -4 -18 -17 -13 -52 21 -96
17 -107 -11 -6 -16 22 -74 36 -74 4 0 8 -4 8 -10 0 -5 -14 -10 -31 -10 -36 0
-89 -47 -89 -80 0 -11 11 -32 25 -46 22 -22 33 -25 75 -22 l49 3 -2 -39 c-2
-64 52 -88 98 -41 l25 24 20 -39 c20 -40 54 -58 84 -47 41 16 63 109 43 180
-7 24 -5 27 17 27 36 0 79 40 79 74 0 43 -26 61 -86 61 l-53 0 4 52 c4 48 2
55 -26 83 -33 33 -52 36 -97 16z m25 -76 c0 -11 -4 -20 -10 -20 -5 0 -10 9
-10 20 0 11 5 20 10 20 6 0 10 -9 10 -20z m-152 -217 c-10 -2 -28 -2 -40 0
-13 2 -5 4 17 4 22 1 32 -1 23 -4z m248 -100 c-11 -11 -19 6 -11 24 8 17 8 17
12 0 3 -10 2 -21 -1 -24z m-146 23 c0 -3 -4 -8 -10 -11 -5 -3 -10 -1 -10 4 0
6 5 11 10 11 6 0 10 -2 10 -4z"/>
<path d="M6337 489 c-28 -16 -49 -67 -45 -112 3 -41 2 -42 -37 -48 -24 -4 -47
-16 -62 -33 -25 -30 -28 -47 -13 -76 11 -20 73 -45 94 -37 11 5 14 -8 13 -60
-2 -57 1 -67 22 -84 13 -10 33 -19 46 -19 29 0 74 35 86 68 l10 25 32 -30 c18
-17 40 -33 50 -36 26 -10 66 9 79 38 10 23 4 50 -30 127 -2 5 3 8 12 8 9 0 23
11 32 25 20 31 8 69 -26 80 -17 5 -21 13 -17 33 8 40 -11 79 -44 93 -26 10
-34 9 -57 -8 l-26 -20 -37 39 c-37 39 -52 44 -82 27z m207 -354 c3 -8 1 -15
-4 -15 -6 0 -10 7 -10 15 0 8 2 15 4 15 2 0 6 -7 10 -15z"/>
<path d="M6996 387 c-13 -13 -25 -30 -28 -38 -5 -11 -10 -9 -23 9 -53 72 -129
25 -99 -60 l13 -38 -28 0 c-64 0 -81 -80 -22 -103 26 -9 27 -13 17 -38 -22
-61 35 -122 86 -90 17 11 23 10 42 -8 12 -12 32 -21 43 -21 26 0 63 44 63 75
0 17 7 24 28 28 34 7 80 51 88 84 10 37 -11 73 -46 80 -30 5 -31 7 -25 47 12
79 -57 125 -109 73z"/>
</g>
</svg>
